<?xml version="1.0" standalone="no"?>
<!DOCTYPE svg PUBLIC "-//W3C//DTD SVG 20010904//EN"
 "http://www.w3.org/TR/2001/REC-SVG-20010904/DTD/svg10.dtd">
<svg version="1.0" xmlns="http://www.w3.org/2000/svg"
 width="1835.639086pt" height="1886.500000pt" viewBox="0 0 1835.639086 1886.500000"
 preserveAspectRatio="xMidYMid meet">
<metadata>
Created by potrace 1.12, written by Peter Selinger 2001-2015
</metadata>
<g transform="translate(-70.524015,1924.000000) scale(0.100000,-0.100000)"
fill="#000000" stroke="none">
<path d="M1234 19223 c-4 -10 -13 -49 -19 -88 -8 -58 -14 -71 -34 -81 -35 -18
-38 -27 -52 -144 -6 -58 -13 -106 -14 -108 -1 -1 -14 2 -29 8 -20 7 -45 6 -92
-5 -36 -8 -78 -15 -95 -15 -46 0 -101 -58 -151 -158 -42 -85 -43 -89 -43 -187
1 -105 8 -131 62 -201 13 -17 30 -58 39 -90 23 -88 74 -132 140 -119 32 6 45
18 128 120 13 17 27 27 31 23 4 -4 11 -94 16 -200 10 -226 24 -390 46 -543 8
-60 18 -144 22 -185 4 -45 18 -101 34 -139 15 -36 27 -68 27 -72 0 -4 -25 -19
-56 -33 -54 -25 -55 -26 -49 -59 6 -31 2 -37 -59 -94 -73 -68 -86 -106 -43
-122 24 -10 47 9 47 40 0 18 90 59 129 59 28 0 35 -14 84 -165 25 -77 60 -178
77 -225 27 -71 87 -274 107 -358 3 -13 16 -30 28 -38 15 -10 26 -32 34 -72 44
-201 54 -232 76 -232 33 0 31 14 -40 290 -8 30 -12 63 -9 72 3 10 0 27 -6 38
-32 59 -67 251 -79 430 -6 89 -7 95 -29 98 -12 2 -26 11 -31 21 -7 13 -41 168
-41 188 0 22 193 59 233 44 22 -9 25 -17 31 -98 4 -48 21 -154 37 -235 16 -81
29 -162 29 -182 0 -19 4 -37 8 -40 5 -3 24 -53 43 -112 24 -76 42 -115 63
-135 53 -52 60 -14 20 102 -16 46 -29 112 -34 175 -5 57 -18 126 -30 160 -12
32 -28 84 -35 114 -7 30 -23 91 -34 134 -24 90 -26 119 -10 147 8 16 7 25 -4
37 -17 21 -43 149 -53 254 -4 50 -12 82 -21 90 -13 11 -15 -3 -12 -116 5 -156
2 -160 -104 -153 -38 2 -87 0 -109 -5 -50 -11 -58 -5 -102 78 l-33 64 -6 197
c-3 109 -10 281 -16 383 -6 102 -12 249 -14 326 l-3 142 50 21 c84 35 179 103
199 141 22 44 18 150 -8 199 -26 51 -134 150 -177 163 -46 14 -50 28 -37 148
29 286 29 320 -1 320 -10 0 -22 -8 -26 -17z m-151 -505 c11 -16 2 -68 -12 -68
-10 0 -32 71 -25 82 8 12 25 5 37 -14z m-173 -71 c0 -1 -16 -42 -35 -91 -19
-48 -37 -103 -41 -122 -13 -68 -49 -49 -39 21 8 62 81 195 107 195 4 0 8 -1 8
-3z m110 -49 c5 -13 14 -72 19 -132 11 -121 9 -128 -50 -172 -35 -26 -87 -32
-107 -12 -36 36 12 246 70 305 37 39 55 41 68 11z m280 -30 c17 -18 33 -43 36
-54 12 -46 -63 -137 -92 -113 -15 12 -21 179 -7 192 13 14 33 6 63 -25z m101
5 c31 -18 38 -48 19 -84 -14 -26 -30 -24 -30 4 -1 12 -7 33 -15 47 -15 26 -19
50 -9 50 3 0 19 -8 35 -17z m-371 -343 c0 -27 -110 -54 -125 -30 -7 11 -1 14
70 28 28 5 51 10 53 11 1 0 2 -3 2 -9z m-133 -102 c38 -37 41 -48 14 -48 -18
0 -71 56 -71 73 0 16 27 4 57 -25z m300 -30 c-2 -13 -4 -5 -4 17 -1 22 1 32 4
23 2 -10 2 -28 0 -40z m33 -569 c0 -21 -4 -39 -9 -39 -10 0 -23 69 -15 82 11
18 24 -5 24 -43z m10 -170 c0 -15 -4 -30 -10 -34 -11 -7 -33 71 -24 87 10 17
34 -20 34 -53z"/>
<path d="M2520 19146 c0 -14 -12 -38 -26 -55 -25 -30 -25 -33 -15 -99 23 -152
34 -315 27 -429 -11 -178 -20 -248 -35 -267 -15 -17 -66 -22 -76 -6 -3 5 -10
51 -15 102 -23 222 -32 279 -71 478 -18 89 -50 160 -75 166 -13 3 -30 4 -38 1
-28 -11 -35 -134 -11 -181 22 -42 34 -143 22 -186 -9 -33 -6 -155 9 -302 l7
-66 -31 -16 c-47 -24 -51 -54 -13 -88 17 -15 38 -28 46 -28 27 0 16 -28 -20
-49 -53 -31 -43 -90 10 -61 13 7 30 10 38 7 17 -6 33 -73 42 -173 4 -38 21
-118 40 -179 32 -107 52 -200 57 -260 3 -32 31 -47 41 -21 4 9 -3 50 -13 92
-20 77 -25 124 -14 124 3 0 14 -10 25 -22 18 -22 18 -22 19 -3 0 11 -5 36 -10
55 -9 32 -40 348 -40 412 0 22 8 32 41 48 23 12 47 19 54 16 8 -3 19 -24 25
-48 6 -24 24 -83 39 -133 16 -49 32 -114 35 -143 9 -67 72 -199 100 -206 42
-11 46 20 16 129 -11 39 -25 93 -31 120 -6 28 -17 73 -24 100 -8 28 -17 87
-20 132 -7 78 -6 82 17 93 33 18 68 51 68 67 0 20 -31 15 -57 -9 -37 -34 -51
-11 -62 107 -13 131 -30 408 -37 620 -5 161 -10 184 -36 185 -5 0 -8 -11 -8
-24z m-202 -568 c14 -91 32 -235 32 -260 0 -10 -6 -18 -14 -18 -17 0 -22 28
-36 200 -12 141 -12 150 -1 150 4 0 13 -33 19 -72z m38 -329 c10 -17 -13 -36
-27 -22 -12 12 -4 33 11 33 5 0 12 -5 16 -11z"/>
<path d="M6615 19064 c-114 -44 -131 -46 -350 -54 -121 -4 -231 -12 -244 -17
-13 -5 -29 -24 -37 -41 -12 -29 -11 -34 12 -62 30 -35 40 -37 62 -10 15 18 36
22 182 31 314 20 389 22 437 10 52 -13 63 -8 66 34 1 20 -4 32 -18 39 -44 24
-47 27 -34 42 9 11 9 17 -1 29 -15 18 -24 18 -75 -1z"/>
<path d="M2895 19003 c-4 -15 -11 -37 -18 -48 -7 -13 -10 -80 -9 -197 1 -98
-1 -178 -6 -178 -4 0 -17 7 -28 15 -10 8 -24 15 -31 15 -17 0 -5 -261 18 -400
11 -63 25 -146 30 -185 6 -38 20 -86 32 -105 17 -28 22 -58 27 -158 5 -94 10
-126 23 -139 15 -15 18 -15 43 10 24 24 26 32 21 77 -5 43 -3 54 15 72 18 18
20 29 15 84 -5 71 4 119 58 290 41 134 47 146 63 152 8 2 12 -13 12 -51 0 -30
4 -77 10 -105 5 -28 14 -131 21 -228 6 -98 15 -189 20 -202 16 -43 34 -18 42
59 10 86 10 89 6 314 -3 235 26 650 52 723 10 29 8 36 -21 73 -27 33 -35 38
-45 27 -14 -15 -105 -248 -128 -328 -36 -122 -87 -322 -87 -339 0 -25 -20 -81
-30 -81 -25 0 -58 347 -62 665 -3 170 -5 190 -20 193 -12 2 -19 -5 -23 -25z"/>
<path d="M5380 18835 l0 -177 -31 26 c-59 50 -66 32 -38 -94 11 -52 32 -144
45 -205 13 -60 31 -128 38 -150 8 -22 18 -98 21 -170 7 -135 14 -204 39 -365
17 -112 23 -130 43 -130 16 0 16 10 -3 140 l-6 45 47 14 c34 10 49 11 58 2 6
-6 21 -11 33 -11 43 0 120 158 141 287 3 18 9 33 13 33 9 0 40 -175 40 -227 0
-53 18 -145 30 -157 7 -7 14 -6 22 2 8 8 8 40 -2 131 -13 122 -10 165 12 143
7 -7 20 -12 29 -12 17 0 17 3 0 58 -22 66 -34 159 -56 401 l-16 175 22 29 c45
61 34 142 -28 208 -13 15 -32 42 -41 60 -9 19 -21 34 -27 34 -5 0 -15 -43 -20
-95 -6 -52 -15 -104 -20 -114 -5 -12 -4 -31 4 -50 24 -59 22 -61 -45 -58 -52
3 -126 -11 -191 -35 -19 -7 -32 59 -43 222 -13 181 -19 209 -48 213 -22 3 -22
3 -22 -173z m381 -342 c3 -18 10 -92 14 -165 7 -134 0 -154 -23 -72 -19 67
-62 115 -138 155 -37 21 -70 41 -71 46 -4 11 163 71 192 69 13 -1 21 -11 26
-33z m-141 -178 c26 -13 50 -42 50 -59 0 -15 -29 -3 -63 25 -55 45 -47 65 13
34z m-11 -91 c63 -57 77 -80 60 -100 -18 -22 -32 -17 -56 20 -11 18 -37 40
-56 49 -25 12 -36 25 -41 48 -12 63 8 59 93 -17z m-33 -91 c25 -33 17 -45 -16
-28 -32 17 -41 45 -14 45 9 0 23 -8 30 -17z m46 -108 c20 -44 -29 -151 -60
-131 -12 7 -26 131 -17 146 3 5 20 10 36 10 22 0 32 -7 41 -25z"/>
<path d="M4560 18960 c-13 -49 -12 -247 2 -348 7 -54 6 -77 -2 -87 -10 -12
-125 -75 -136 -75 -1 0 -10 35 -19 78 -34 158 -54 192 -114 192 -23 0 -48 -8
-64 -20 -14 -11 -45 -27 -69 -36 -86 -30 -114 -57 -162 -157 -71 -148 -88
-209 -88 -309 1 -77 5 -96 31 -150 39 -80 127 -178 195 -217 62 -36 79 -38
128 -12 32 16 59 18 190 17 l153 -1 7 -80 c4 -44 15 -111 25 -150 36 -133 71
-73 52 88 -4 40 -8 95 -9 124 l0 52 43 11 c23 6 96 26 162 45 66 19 140 37
165 41 61 10 100 27 129 58 l24 26 -20 23 c-12 13 -23 41 -26 70 -6 63 -36 94
-109 114 -40 11 -58 21 -58 32 0 9 21 43 45 75 25 33 45 67 45 76 0 9 -16 35
-36 58 -52 61 -112 76 -266 67 -97 -6 -119 -4 -123 7 -3 8 -1 91 4 184 8 144
7 171 -5 184 -24 24 -34 -4 -34 -97 0 -84 -13 -111 -23 -48 -5 31 3 107 19
178 6 24 4 27 -19 27 -22 0 -28 -6 -37 -40z m-231 -297 c11 -10 24 -34 27 -53
l7 -35 -41 45 c-23 25 -41 48 -42 53 0 13 27 7 49 -10z m-56 -115 c42 -57 61
-153 54 -276 -9 -157 -67 -312 -117 -312 -33 0 -86 56 -115 122 -22 48 -30 83
-33 146 -7 120 24 252 57 252 5 0 17 -23 26 -51 10 -28 22 -48 28 -46 22 7 19
51 -9 108 -33 71 -25 89 42 89 37 0 46 -5 67 -32z m575 -99 c28 -5 58 -16 67
-23 16 -11 13 -16 -31 -42 -27 -16 -62 -31 -79 -34 -23 -4 -31 -11 -33 -32 -3
-28 -33 -45 -87 -50 l-30 -3 -6 75 c-3 41 -2 79 2 83 11 14 82 36 116 37 18 0
54 -5 81 -11z m-392 -112 c-4 -23 0 -39 13 -56 27 -35 47 -22 53 34 6 45 35
93 48 78 4 -5 10 -40 14 -80 l6 -71 -33 -11 c-17 -6 -56 -13 -84 -17 l-53 -7
0 95 c0 52 3 98 7 101 13 14 35 -34 29 -66z m523 -182 c46 -13 90 -30 97 -36
21 -17 2 -41 -53 -71 -83 -45 -313 -52 -313 -9 0 10 -9 26 -20 36 -13 12 -20
29 -18 44 3 21 11 26 56 36 29 7 55 15 59 19 14 14 113 4 192 -19z m-392 -19
c1 -1 3 -51 4 -111 2 -129 10 -122 -139 -124 -109 -1 -112 1 -86 86 9 32 20
78 23 103 5 36 11 45 31 51 20 6 159 2 167 -5z m139 -177 c8 -14 -18 -31 -30
-19 -9 9 0 30 14 30 5 0 12 -5 16 -11z m-589 -45 c-10 -10 -48 27 -41 38 4 6
16 1 27 -11 12 -11 18 -24 14 -27z"/>
<path d="M3464 18955 c-6 -26 -18 -32 -29 -15 -10 16 -33 11 -39 -8 -4 -10 2
-45 13 -78 24 -76 30 -123 41 -329 l9 -170 -46 -46 c-37 -38 -46 -55 -50 -92
l-5 -45 38 -11 c22 -6 46 -11 55 -11 14 0 18 -17 23 -97 8 -109 16 -160 53
-315 21 -91 28 -108 44 -108 21 0 25 21 8 53 -12 21 -16 413 -5 425 3 3 51
-39 107 -94 100 -99 228 -275 270 -370 32 -77 57 -72 40 8 -11 49 -10 54 9 70
21 17 20 18 -69 115 -51 55 -91 107 -91 118 0 12 -27 47 -61 80 -66 65 -143
175 -165 238 -12 33 -12 43 0 72 16 37 62 67 93 59 17 -5 24 4 42 49 19 46 20
58 10 75 -16 25 -10 40 64 154 65 100 117 197 117 219 0 45 -35 28 -86 -43
-36 -51 -38 -52 -44 -28 -4 18 -13 25 -30 25 -21 0 -28 -13 -67 -120 -24 -66
-54 -142 -68 -168 -38 -74 -96 -158 -105 -152 -5 3 -11 27 -15 53 -3 26 -13
98 -22 160 -11 81 -14 147 -10 233 5 99 4 119 -8 119 -8 0 -17 -11 -21 -25z"/>
<path d="M1936 18903 c-3 -21 -6 -87 -7 -148 -1 -107 -8 -115 -24 -23 -4 25
-12 39 -26 43 -11 4 -22 5 -25 3 -2 -3 -11 -43 -19 -89 -8 -47 -21 -101 -29
-120 -7 -19 -28 -87 -47 -152 -44 -158 -55 -144 -51 61 2 86 0 187 -4 224 -6
65 -7 68 -42 86 -21 10 -42 17 -48 15 -7 -2 -9 -38 -6 -108 4 -99 3 -105 -15
-105 -10 0 -24 -5 -31 -12 -18 -18 -15 -138 4 -184 18 -42 19 -133 9 -424 -8
-204 -2 -235 43 -225 23 5 31 1 42 -20 17 -31 34 -32 74 -1 35 26 52 72 87
231 23 105 37 145 51 145 4 0 8 -13 8 -29 0 -17 11 -60 24 -98 15 -43 27 -103
31 -165 4 -58 12 -104 21 -115 13 -17 15 -17 29 1 8 11 15 31 15 45 0 15 4 40
9 58 5 18 6 77 1 140 -5 59 -11 305 -14 547 -4 241 -9 442 -12 447 -3 5 -13 9
-23 9 -13 0 -20 -10 -25 -37z m-305 -1000 c-9 -16 -10 -14 -11 12 0 21 3 26
11 18 8 -8 8 -16 0 -30z"/>
<path d="M6126 18758 c-3 -13 -6 -41 -6 -62 0 -23 -7 -47 -17 -58 -21 -24 -21
-68 0 -177 14 -69 17 -155 18 -468 0 -321 3 -383 15 -383 20 0 45 44 55 98 5
25 23 76 40 112 17 36 44 100 60 143 39 105 106 247 117 247 5 0 11 -69 14
-152 6 -180 22 -235 78 -258 30 -13 34 -12 51 11 10 13 19 32 19 41 0 9 14 51
31 93 38 97 47 145 27 145 -8 0 -20 -11 -26 -25 -22 -48 -44 -25 -87 90 -30
77 -30 132 -5 337 7 53 10 104 7 112 -9 23 -36 19 -46 -6 -5 -13 -35 -90 -66
-173 -98 -263 -128 -340 -135 -348 -4 -5 -19 14 -33 42 l-27 50 10 183 c13
241 25 295 61 262 16 -15 19 -15 24 -1 8 19 -10 85 -30 115 -24 33 -43 27 -55
-18 -13 -49 -30 -44 -30 9 0 20 -5 42 -12 49 -19 19 -45 14 -52 -10z m402
-733 c12 -25 22 -53 22 -63 -1 -26 -27 -55 -45 -49 -12 5 -15 23 -15 82 0 41
4 75 8 75 4 0 18 -20 30 -45z"/>
<path d="M6486 17483 c-13 -254 -35 -340 -122 -456 -84 -114 -89 -99 -80 212
4 124 9 245 12 268 5 34 3 44 -10 49 -24 9 -27 3 -39 -85 -7 -51 -15 -81 -23
-81 -6 0 -17 -7 -24 -15 -12 -14 -8 -48 16 -127 4 -14 -1 -18 -20 -18 -35 0
-38 -10 -21 -82 8 -35 15 -85 15 -113 0 -27 7 -89 15 -137 15 -84 15 -89 -5
-127 -26 -53 -26 -59 12 -110 28 -38 32 -54 41 -144 11 -121 18 -140 52 -163
40 -26 44 -7 23 99 -37 183 -3 376 70 406 40 17 58 10 66 -24 4 -15 19 -45 33
-68 15 -23 39 -80 53 -127 28 -89 52 -113 64 -65 4 14 -1 94 -9 177 -9 84 -15
172 -14 197 2 25 2 103 1 173 -2 123 -3 127 -24 130 -23 3 -23 6 -29 178 -3
96 -6 176 -7 178 -1 1 -11 2 -21 2 -17 0 -20 -11 -25 -127z m-36 -447 c0 -16
-21 -56 -30 -56 -14 0 -13 33 2 48 12 12 28 16 28 8z"/>
<path d="M4967 17400 c-22 -48 -23 -50 -66 -50 l-43 0 5 -202 c4 -155 2 -224
-9 -293 -10 -59 -13 -112 -8 -155 4 -36 7 -128 8 -206 1 -103 5 -145 15 -157
18 -23 28 -14 36 33 4 22 12 40 18 40 7 0 22 -23 34 -50 12 -28 27 -50 32 -50
16 0 14 8 -16 96 -24 69 -27 94 -27 199 1 165 53 525 76 525 13 0 26 -41 64
-200 44 -184 76 -284 114 -359 42 -84 93 -117 105 -68 6 23 -2 48 -65 197 -34
82 -73 211 -65 218 10 10 19 -9 50 -100 28 -83 55 -124 55 -84 0 45 -69 246
-121 352 -32 67 -59 131 -59 143 0 22 -65 187 -82 209 -18 21 -29 13 -51 -38z"/>
<path d="M5891 17434 c-11 -8 -21 -23 -21 -32 0 -9 -25 -78 -56 -152 -74 -181
-115 -293 -159 -428 -38 -117 -56 -141 -82 -106 -12 15 -13 54 -9 208 5 194
15 240 38 178 13 -34 28 -43 28 -16 0 9 -11 48 -25 86 -19 53 -25 89 -25 154
0 69 -3 84 -15 84 -9 0 -18 -7 -21 -15 -4 -8 -18 -15 -34 -15 l-28 0 -7 -94
c-4 -52 -5 -99 -1 -104 3 -5 -3 -21 -13 -34 -19 -23 -19 -31 -6 -179 7 -84 17
-165 23 -179 5 -14 15 -63 21 -110 30 -216 48 -263 90 -240 27 14 109 225 151
388 12 48 27 54 36 15 4 -16 17 -46 30 -68 13 -22 28 -62 34 -90 6 -27 15 -62
21 -77 11 -28 33 -37 44 -18 3 6 15 10 26 10 23 0 23 4 4 33 -11 18 -16 71
-19 237 -3 118 -8 240 -12 270 -4 35 0 89 11 150 10 52 20 107 22 121 6 32
-16 43 -46 23z m-57 -479 c-5 -71 -10 -92 -17 -80 -10 19 -4 156 8 175 14 22
15 1 9 -95z"/>
<path d="M1976 17351 c-17 -7 -19 -21 -22 -167 l-2 -161 -32 -46 c-17 -26 -35
-49 -41 -52 -12 -8 -12 -52 2 -77 6 -11 17 -84 25 -162 7 -77 21 -179 30 -226
9 -47 19 -146 23 -220 9 -152 15 -180 42 -180 20 0 27 34 10 44 -5 3 -7 77 -5
163 8 439 17 664 26 669 5 3 15 1 23 -6 15 -12 21 -30 125 -330 97 -281 131
-373 142 -387 16 -20 37 -15 49 10 8 18 2 42 -30 124 -23 57 -41 110 -41 120
0 9 -13 53 -29 97 -16 45 -35 101 -42 126 -7 25 -28 79 -47 120 -42 91 -66
171 -92 310 -24 121 -48 209 -62 228 -12 13 -24 14 -52 3z"/>
<path d="M2540 17243 c-1 -38 -7 -95 -13 -128 -12 -54 -16 -60 -37 -60 -24 0
-25 -2 -23 -70 5 -161 3 -274 -6 -297 -6 -17 -24 -28 -66 -42 -59 -18 -73 -33
-57 -62 7 -12 5 -25 -6 -44 -14 -23 -14 -31 -3 -44 19 -23 44 -20 71 9 41 44
56 34 70 -47 7 -40 16 -134 20 -209 4 -75 10 -141 14 -148 14 -21 27 -11 51
42 23 49 25 62 25 234 0 100 4 192 9 205 6 17 25 29 67 42 56 17 58 18 71 0 7
-10 13 -24 13 -32 0 -8 26 -82 59 -165 32 -84 62 -165 67 -181 5 -16 14 -31
20 -33 14 -5 25 120 13 156 -10 33 -32 219 -33 289 -1 28 -4 52 -8 52 -5 0 -8
7 -8 15 0 13 55 35 91 35 9 0 24 9 34 20 31 35 8 43 -80 30 -42 -6 -78 -10
-79 -8 -2 2 -28 47 -59 101 -55 98 -72 149 -97 301 -16 98 -22 106 -75 106
l-45 0 0 -67z m137 -378 c13 -55 22 -106 21 -114 -4 -18 -71 -42 -88 -31 -9 6
-11 27 -6 81 14 154 17 170 34 167 11 -2 23 -32 39 -103z"/>
<path d="M3403 17293 c-4 -11 3 -23 20 -37 19 -15 25 -27 21 -43 -5 -17 2 -27
35 -47 37 -24 53 -27 162 -30 66 -2 123 -6 126 -9 3 -4 3 -13 0 -22 -5 -12
-28 -15 -119 -17 -154 -2 -156 -2 -191 25 -41 30 -123 65 -174 73 -34 5 -53
-1 -133 -40 -52 -25 -102 -46 -112 -46 -32 0 -43 -42 -30 -114 7 -35 12 -79
12 -99 0 -19 9 -64 20 -99 11 -34 20 -72 20 -83 0 -31 44 -117 80 -159 35 -40
104 -79 179 -102 94 -28 143 -12 183 63 27 50 35 123 12 123 -6 0 -31 -7 -54
-15 -107 -38 -252 3 -307 86 -49 74 -40 210 17 264 46 44 168 45 131 1 -18
-21 2 -46 35 -46 14 0 33 -6 44 -12 31 -20 47 3 32 45 -7 18 -12 48 -12 66 0
32 1 33 33 28 17 -2 46 -10 64 -18 26 -11 39 -10 83 4 29 9 83 17 121 17 l69
0 0 -29 c0 -16 -7 -34 -15 -41 -16 -14 -20 -46 -6 -54 5 -3 12 -23 16 -43 4
-21 22 -78 40 -128 18 -49 37 -116 43 -148 6 -32 28 -110 49 -173 47 -149 73
-163 87 -50 5 37 2 62 -10 91 -10 25 -14 54 -11 79 4 25 -2 72 -15 121 -47
185 -58 244 -58 312 0 67 2 73 23 78 12 3 32 4 44 3 12 -2 23 2 25 7 2 6 -23
11 -59 13 -61 3 -92 19 -78 42 4 6 61 10 149 10 126 0 145 2 159 18 25 27 21
50 -13 67 -17 9 -27 21 -24 28 16 42 -105 51 -441 34 -136 -8 -167 -6 -204 7
-54 20 -60 20 -68 -1z"/>
<path d="M4216 17244 c-3 -26 -6 -91 -6 -145 0 -79 -5 -111 -25 -168 -30 -82
-26 -118 24 -206 30 -52 31 -61 37 -197 5 -147 17 -212 37 -205 7 2 16 17 21
33 20 66 31 88 64 127 39 47 109 97 183 132 50 23 89 52 89 66 0 18 -41 18
-84 -1 -50 -21 -76 -25 -76 -12 0 4 43 52 95 106 90 93 112 131 60 104 -13 -7
-71 -59 -129 -115 -110 -107 -131 -118 -173 -88 -48 34 -44 119 8 158 14 10
65 27 113 37 48 11 99 26 114 34 15 8 43 23 62 33 50 25 80 53 80 76 0 19 -5
19 -71 14 -53 -4 -91 -15 -146 -42 -92 -44 -160 -68 -173 -60 -11 7 -13 86 -4
134 6 27 13 33 57 46 28 8 83 15 123 15 100 0 127 27 84 83 -25 31 -93 55
-180 62 -36 3 -81 9 -100 15 -67 19 -77 15 -84 -36z m222 -36 c41 -12 34 -24
-20 -31 -24 -4 -53 -10 -65 -13 -20 -6 -23 -3 -23 23 0 16 3 33 7 37 7 7 47 1
101 -16z m-108 -593 c0 -8 -7 -15 -15 -15 -16 0 -20 12 -8 23 11 12 23 8 23
-8z"/>
<path d="M12596 16108 c-36 -57 -49 -139 -48 -305 1 -90 -2 -163 -7 -163 -4 0
-45 24 -90 53 -169 108 -227 142 -340 198 -64 31 -141 64 -171 74 -53 16 -252
44 -355 50 -27 2 -79 8 -115 14 -83 14 -185 14 -230 0 -48 -14 -78 -19 -195
-28 -118 -10 -151 -17 -310 -69 -66 -22 -140 -43 -165 -47 -94 -16 -366 -128
-434 -178 -17 -13 -51 -35 -76 -49 -25 -15 -99 -77 -165 -138 -115 -106 -122
-111 -155 -105 -29 5 -44 0 -85 -27 -46 -29 -172 -128 -269 -210 l-38 -33 -15
23 c-20 29 -41 28 -49 -3 -4 -17 -13 -25 -28 -25 -39 0 -66 -28 -66 -69 0 -20
5 -42 12 -49 9 -9 7 -17 -8 -34 -31 -35 -49 -67 -74 -133 -19 -51 -22 -78 -22
-180 1 -68 -5 -146 -12 -180 -8 -33 -17 -88 -21 -123 -4 -34 -11 -65 -17 -68
-12 -8 -62 39 -97 91 -14 22 -53 89 -86 150 -46 84 -66 111 -83 113 -31 5 -28
-11 18 -107 45 -93 49 -116 20 -124 -24 -6 -25 -28 -4 -91 15 -45 36 -67 148
-159 22 -18 27 -28 22 -45 -9 -28 -47 -29 -144 -2 -39 11 -85 20 -101 20 -61
0 -47 -42 20 -60 43 -12 54 -40 15 -40 -33 0 -53 -25 -35 -46 10 -12 25 -14
76 -8 63 6 63 6 63 -20 0 -29 37 -59 67 -54 12 2 17 -2 14 -12 -2 -8 -3 -29
-2 -47 1 -24 -7 -42 -34 -71 -40 -44 -41 -53 -19 -87 18 -27 15 -35 -86 -225
-49 -92 -56 -130 -24 -130 8 0 21 8 28 18 8 9 32 38 53 64 21 26 66 81 99 122
34 41 69 84 77 96 9 13 20 19 27 15 21 -13 4 -76 -39 -150 -41 -70 -49 -99
-31 -110 17 -11 11 -79 -14 -153 -14 -39 -41 -137 -62 -217 -32 -126 -40 -147
-62 -158 -23 -11 -24 -16 -23 -97 1 -47 2 -98 2 -115 1 -16 -11 -79 -25 -138
-15 -60 -29 -141 -32 -180 -6 -82 1 -101 107 -259 110 -164 192 -252 279 -298
30 -16 84 -54 120 -85 35 -30 68 -55 72 -55 4 0 8 -5 8 -12 0 -9 -3 -9 -12 0
-7 7 -20 12 -29 12 -22 0 -13 -41 10 -47 23 -6 57 -83 41 -93 -7 -5 -1 -9 19
-12 17 -2 31 -1 31 4 0 4 9 8 20 8 14 0 20 -7 20 -21 0 -17 -4 -20 -24 -15
-33 8 -38 -3 -16 -32 15 -19 17 -28 9 -38 -9 -11 -7 -14 10 -14 14 0 21 -6 21
-18 0 -11 9 -27 20 -37 23 -21 26 -45 8 -64 -11 -10 -10 -14 5 -22 9 -6 17
-19 17 -29 0 -10 5 -22 10 -25 6 -3 10 -14 10 -23 0 -9 12 -29 27 -44 21 -22
25 -31 15 -37 -10 -6 -6 -19 17 -56 17 -27 31 -58 31 -70 0 -11 9 -45 20 -75
22 -60 26 -120 9 -120 -7 0 -8 -11 -4 -29 5 -23 2 -32 -14 -40 -27 -15 -41
-14 -41 2 0 21 -45 58 -73 61 -14 1 -37 10 -52 20 -16 11 -33 15 -43 10 -9 -4
-25 -6 -35 -5 -10 1 -29 -5 -42 -13 -33 -22 -36 -20 -33 12 4 39 -34 43 -69 6
-22 -24 -23 -28 -9 -36 26 -15 18 -28 -18 -28 -18 0 -39 7 -46 15 -7 9 -21 13
-31 10 -11 -4 -25 2 -36 14 -10 12 -22 21 -28 21 -6 0 -15 10 -20 22 -12 26
-35 36 -35 14 0 -28 -27 -17 -74 29 -51 49 -56 51 -75 33 -10 -11 -12 -9 -9 7
2 12 10 19 21 17 30 -5 18 17 -23 44 -41 27 -49 39 -29 46 16 5 1 48 -17 48
-8 0 -17 7 -20 15 -4 8 -15 15 -25 15 -10 0 -19 5 -19 10 0 10 14 14 40 10 13
-1 12 1 -1 12 -20 16 -31 56 -18 64 6 3 21 -2 35 -11 14 -9 26 -15 27 -13 1 2
8 13 14 25 14 25 3 38 -26 28 -21 -6 -56 37 -56 70 0 12 -6 19 -14 17 -10 -2
-12 6 -7 35 4 21 6 59 6 86 -1 27 4 47 9 47 17 0 12 43 -7 66 -11 13 -36 24
-67 28 -43 7 -47 6 -36 -7 9 -11 9 -17 1 -22 -14 -8 -23 -1 -26 23 -4 24 -13
86 -13 95 -1 4 -19 7 -42 7 -38 0 -41 2 -35 23 4 16 -1 26 -15 35 -11 7 -17
17 -14 22 4 6 11 8 16 5 5 -4 9 -2 9 2 0 5 -9 14 -21 21 -17 11 -18 16 -8 28
9 11 9 18 1 26 -6 6 -8 26 -5 47 6 35 6 36 -14 19 -30 -27 -34 -22 -27 31 4
31 2 51 -5 55 -6 4 -11 15 -11 25 0 10 -16 36 -35 57 -19 21 -35 44 -35 51 0
18 29 17 36 -2 3 -8 16 -17 27 -21 12 -3 39 -17 60 -31 43 -30 56 -26 33 10
-16 24 -88 64 -158 88 -43 15 -48 24 -17 32 29 8 15 25 -16 19 -26 -4 -35 12
-12 22 10 5 10 7 0 12 -18 8 -16 34 2 34 21 0 19 17 -5 30 -16 9 -18 15 -10
29 7 14 6 22 -5 31 -8 7 -15 20 -15 29 0 9 -12 28 -27 42 -37 33 -53 43 -53
30 0 -6 7 -11 15 -11 8 0 15 -9 15 -21 0 -15 -5 -19 -19 -14 -17 5 -19 2 -14
-37 2 -24 9 -54 13 -68 14 -40 16 -73 4 -77 -16 -5 -69 48 -84 85 -13 33 -9
47 13 47 7 0 12 7 12 15 0 22 -47 20 -51 -3 -1 -10 -8 -25 -15 -33 -11 -14
-14 -13 -21 5 -7 19 -62 61 -81 61 -10 0 -21 -29 -14 -36 3 -3 11 -6 19 -8 24
-3 38 -17 39 -39 1 -17 2 -18 6 -4 8 29 26 19 21 -13 -3 -22 0 -31 12 -35 9
-3 22 -17 29 -31 8 -18 16 -24 30 -19 10 3 24 -1 31 -10 7 -8 20 -15 30 -15
24 0 49 -31 62 -76 5 -22 15 -42 22 -46 8 -5 8 -10 -1 -19 -19 -19 -46 -6 -55
27 -5 19 -16 34 -28 37 -12 3 -20 14 -20 26 0 27 -16 27 -23 0 -5 -19 -8 -17
-39 17 -19 20 -40 35 -47 33 -8 -3 -2 -15 17 -34 25 -25 28 -35 24 -70 -3 -31
0 -44 13 -55 16 -14 17 -13 11 8 -7 20 -4 22 27 22 47 0 52 -10 17 -31 -32
-20 -40 -39 -15 -39 8 0 15 -7 15 -15 0 -17 -16 -20 -25 -5 -7 12 -25 4 -25
-11 0 -5 9 -9 19 -9 11 0 23 -4 26 -10 3 -5 -1 -10 -9 -10 -17 0 -22 -35 -7
-44 5 -4 3 -19 -6 -36 -12 -25 -12 -37 -3 -68 7 -20 16 -41 21 -46 14 -16 10
-29 -6 -22 -12 4 -15 -4 -15 -44 0 -27 4 -51 9 -55 5 -3 12 -19 16 -35 10 -46
36 -91 48 -87 7 2 13 16 15 30 4 30 27 35 57 13 19 -13 17 -15 -20 -32 -22
-10 -41 -19 -42 -19 -1 0 -8 -40 -17 -89 -13 -73 -13 -92 -2 -107 7 -10 16
-16 19 -12 10 9 8 -10 -2 -26 -5 -8 -6 -21 -1 -30 4 -9 20 -42 35 -73 15 -32
44 -73 64 -93 95 -95 95 -95 138 -98 26 -2 52 -11 68 -25 21 -19 24 -28 19
-60 -4 -28 -2 -41 10 -51 24 -20 19 -34 -8 -27 -14 3 -28 2 -31 -4 -3 -5 0
-10 8 -10 8 0 25 -8 37 -18 l23 -19 -24 -17 c-19 -13 -21 -18 -10 -25 8 -5 20
-7 28 -4 7 3 13 0 13 -6 0 -6 -4 -11 -10 -11 -11 0 -13 -33 -4 -79 5 -22 14
-33 31 -37 18 -5 23 -12 20 -25 -6 -21 25 -50 71 -69 25 -10 31 -17 27 -31
-10 -31 48 -37 121 -14 17 5 32 -2 63 -30 23 -21 41 -45 41 -54 0 -9 44 -61
97 -115 55 -56 92 -101 85 -104 -25 -8 -11 -22 24 -22 36 0 103 -25 115 -43 4
-6 15 -7 24 -3 20 7 95 -13 95 -26 0 -4 20 -8 44 -8 27 0 48 -6 56 -15 7 -9
19 -14 26 -11 24 9 67 -64 58 -99 -4 -15 -2 -25 5 -25 6 0 11 13 11 29 0 23 5
30 23 33 12 2 22 9 22 17 0 8 7 19 17 24 24 16 48 -8 48 -49 0 -37 -5 -39 -47
-23 -15 6 -30 10 -32 10 -2 -1 -4 -20 -4 -43 0 -41 1 -43 32 -46 30 -3 32 -6
26 -29 -3 -14 -2 -29 4 -32 6 -4 7 -82 1 -224 -9 -226 -2 -391 21 -466 10 -35
11 -45 1 -49 -7 -2 -12 -16 -12 -32 0 -20 6 -29 21 -33 17 -5 20 -11 14 -36
-7 -34 8 -71 30 -71 8 0 15 -4 15 -10 0 -16 -60 -11 -120 10 -79 28 -119 26
-160 -9 l-35 -28 31 -19 c17 -11 72 -35 123 -54 64 -25 90 -39 88 -50 -2 -10
-13 -14 -32 -13 -59 3 -76 -6 -96 -53 -19 -42 -25 -98 -19 -166 1 -14 -7 -46
-18 -70 -12 -24 -26 -63 -31 -88 -36 -153 -55 -267 -58 -351 -5 -106 3 -133
73 -231 18 -26 29 -50 24 -53 -5 -3 -47 1 -92 9 -126 22 -297 41 -305 32 -4
-4 -2 -16 5 -26 16 -26 16 -27 -13 -34 -27 -7 -32 -18 -12 -33 26 -21 286 -57
384 -54 42 2 43 2 37 -29 -6 -30 -6 -30 35 -30 64 0 49 -30 -36 -71 -78 -37
-81 -62 -6 -57 l45 3 -1 -93 c-2 -76 1 -93 14 -98 22 -9 42 12 48 49 9 55 39
127 53 127 8 0 14 -7 14 -15 0 -25 66 -82 117 -101 26 -9 49 -19 51 -20 17
-12 -166 -552 -223 -657 -27 -51 -35 -75 -30 -96 4 -20 -7 -64 -40 -152 -25
-68 -59 -160 -75 -204 -31 -86 -49 -101 -81 -66 -11 12 -28 21 -37 21 -10 0
-56 35 -102 78 -131 120 -160 139 -160 107 0 -24 60 -103 132 -176 65 -65 68
-70 68 -116 0 -26 3 -58 6 -69 5 -18 -7 -31 -62 -72 -138 -104 -244 -223 -304
-342 -28 -56 -38 -184 -20 -260 11 -45 10 -54 -4 -68 -30 -31 -91 -19 -200 38
-95 49 -101 51 -114 33 -33 -44 -34 -53 -8 -63 14 -5 42 -20 63 -34 21 -14 61
-30 88 -36 58 -13 95 -34 95 -55 0 -8 14 -17 35 -21 42 -7 43 -13 10 -52 -40
-48 -34 -53 58 -50 l82 3 -3 -27 c-2 -22 2 -27 27 -33 58 -12 57 -17 -14 -247
-89 -291 -95 -311 -96 -344 0 -16 -17 -81 -38 -144 -30 -89 -44 -118 -62 -127
-19 -10 -27 -9 -40 2 -8 8 -18 12 -22 9 -13 -14 -47 10 -88 61 -24 30 -47 55
-52 55 -4 0 -12 -12 -17 -26 -8 -19 -15 -24 -28 -19 -38 17 -62 17 -62 3 0
-18 131 -119 175 -137 25 -9 33 -20 41 -57 l11 -45 -91 -46 c-129 -64 -208
-146 -276 -288 -27 -58 -54 -105 -60 -105 -26 0 -101 87 -159 186 -69 116 -89
144 -103 144 -16 0 -7 -36 23 -95 21 -42 29 -68 25 -88 -6 -28 16 -87 32 -87
10 0 116 -89 120 -101 2 -5 -22 -9 -53 -9 -53 0 -57 -1 -52 -21 4 -15 -5 -32
-34 -62 -45 -48 -47 -59 -16 -84 13 -10 26 -26 30 -36 4 -12 17 -17 42 -17 20
0 35 -5 35 -12 0 -6 -34 -46 -75 -89 -41 -42 -75 -82 -75 -88 0 -36 90 7 198
95 29 24 58 44 63 44 21 0 69 -31 79 -51 8 -15 8 -29 1 -51 -14 -41 -14 -48 4
-48 20 0 19 -4 -11 -91 -15 -41 -49 -137 -76 -214 -71 -198 -97 -282 -109
-345 -14 -75 -58 -229 -75 -262 -15 -28 -68 -52 -106 -46 -25 3 -30 21 -48
163 -8 66 -17 100 -35 125 -13 19 -29 48 -36 63 -17 39 -43 31 -47 -13 -2 -32
28 -257 44 -324 l7 -30 -28 22 c-32 26 -70 30 -61 7 3 -8 9 -22 12 -30 4 -11
0 -15 -15 -15 -12 0 -21 -6 -21 -14 0 -8 -7 -17 -16 -20 -10 -4 -14 -12 -10
-22 6 -17 -4 -16 -46 1 -14 5 -18 2 -18 -13 0 -17 -7 -21 -42 -24 -61 -4 -58
-24 7 -44 30 -10 52 -21 47 -26 -5 -5 -55 -19 -113 -32 -71 -16 -104 -28 -104
-37 0 -10 18 -15 70 -16 70 -2 206 10 236 22 13 5 29 -19 74 -109 l57 -115
-30 -88 c-214 -615 -219 -632 -231 -775 -5 -69 -4 -88 6 -88 8 0 13 14 13 38
0 99 93 451 133 506 14 19 15 18 28 -10 8 -16 22 -30 33 -32 16 -3 17 1 12 35
-4 22 0 59 8 88 20 71 74 197 92 215 13 13 17 11 39 -15 37 -45 41 -67 16 -83
-11 -8 -21 -21 -21 -29 0 -11 -8 -12 -35 -7 -47 9 -47 -15 1 -54 31 -26 34
-33 25 -50 -14 -27 -14 -32 4 -32 22 0 18 -15 -10 -41 -38 -36 -30 -41 21 -13
37 20 53 24 85 19 43 -8 46 -13 24 -56 -9 -16 -13 -34 -10 -39 11 -18 31 -11
45 15 16 30 29 31 64 4 19 -15 34 -19 56 -14 17 4 30 2 30 -3 0 -5 12 -15 28
-23 15 -7 39 -22 54 -33 18 -12 35 -16 52 -12 33 8 33 20 1 34 l-25 12 20 37
c26 49 25 91 -2 120 -19 20 -20 26 -8 47 7 14 10 32 7 40 -8 19 -28 20 -96 4
-34 -7 -55 -8 -61 -2 -10 10 47 191 125 394 20 52 37 100 38 105 2 6 5 15 9
20 3 6 13 33 21 60 9 28 29 86 45 130 33 90 44 99 135 110 l57 7 16 -37 c8
-20 20 -62 26 -93 6 -32 21 -75 33 -97 13 -22 26 -53 30 -70 9 -39 23 -55 48
-55 19 0 20 5 14 74 -4 58 -2 78 9 87 18 15 18 39 0 64 -8 11 -20 39 -27 63
-16 56 -6 67 51 52 36 -10 45 -9 58 4 14 14 14 18 -7 40 -22 23 -22 25 -6 56
15 29 20 32 50 27 39 -6 60 12 60 52 0 23 5 27 38 31 50 7 48 24 -3 28 -39 3
-48 22 -10 22 28 0 110 38 110 51 0 8 -19 9 -66 4 -47 -5 -64 -4 -60 4 4 6 28
11 53 11 42 0 45 1 39 23 -6 26 4 34 88 64 45 17 77 45 65 57 -5 6 -168 -41
-240 -69 -58 -23 -79 -16 -79 27 -1 85 -47 179 -137 281 -18 20 -33 46 -33 56
0 11 14 59 31 108 17 48 37 108 45 132 18 57 42 93 55 85 14 -8 49 25 49 47 0
10 5 21 10 24 6 3 10 14 10 24 0 10 9 26 20 36 11 10 20 31 20 46 0 16 12 45
26 66 18 27 24 47 21 68 -3 18 1 39 9 50 13 18 14 17 14 -8 0 -31 23 -37 39
-9 8 14 13 15 30 5 37 -23 44 -16 39 36 -3 29 -14 60 -26 76 -39 49 -44 89
-19 158 l22 62 96 26 c52 15 118 38 146 52 68 35 82 24 118 -90 46 -151 54
-165 79 -144 10 8 10 27 0 98 -17 116 -17 170 -1 176 9 3 9 11 2 33 -13 35 -8
64 10 64 7 0 40 12 73 27 43 19 62 33 67 50 3 13 12 23 20 23 8 0 15 8 15 18
0 12 -17 25 -52 40 -32 13 -48 25 -43 31 6 5 48 24 95 42 93 37 150 66 150 79
0 17 -17 19 -61 6 -24 -7 -64 -17 -89 -21 -41 -6 -44 -5 -30 9 8 8 52 33 98
56 82 40 104 62 84 82 -11 11 -109 -38 -224 -111 -34 -22 -66 -37 -70 -35 -4
3 -17 31 -29 63 -12 35 -47 92 -85 140 -35 45 -64 90 -64 101 0 10 16 63 36
117 19 54 51 146 71 205 20 59 39 105 42 103 3 -3 4 -28 2 -56 -2 -45 0 -50
16 -47 15 3 18 14 20 68 4 133 42 335 100 525 15 48 23 60 43 65 20 5 25 12
23 36 -8 92 -6 115 11 172 15 50 29 71 62 100 59 52 136 91 142 73 3 -8 21
-32 41 -54 31 -34 39 -54 56 -136 18 -82 24 -96 40 -96 29 0 34 60 22 243
l-11 153 26 26 c25 24 29 25 72 14 24 -6 50 -11 55 -11 15 0 14 33 -1 48 -9 9
-4 12 25 12 33 0 37 3 37 25 0 13 -8 28 -17 34 -10 5 -15 13 -11 17 13 12 111
24 150 18 56 -9 108 3 108 25 0 24 -20 31 -63 24 -29 -4 -35 -2 -40 17 -5 21
-10 23 -65 18 -109 -10 -107 -12 -109 107 -2 70 -11 134 -28 203 -28 111 -26
157 9 168 11 4 82 17 156 28 123 19 135 23 138 43 4 30 -19 35 -158 37 -81 1
-122 6 -133 15 -13 10 -24 11 -48 2 -48 -16 -59 -14 -59 14 0 16 13 35 41 57
35 28 40 37 36 63 -3 21 1 38 14 54 23 28 25 67 4 78 -13 7 -2 48 66 263 44
140 100 336 125 435 82 325 153 561 199 662 9 17 18 45 21 62 4 17 11 34 16
37 17 11 58 -38 58 -68 0 -59 41 -93 54 -45 3 12 6 70 6 129 0 97 2 109 20
120 25 16 25 31 0 83 -16 34 -19 53 -14 104 l7 62 38 -6 c47 -8 61 13 37 56
-9 15 -14 30 -12 32 3 3 33 -6 67 -20 51 -20 67 -22 90 -14 43 16 43 35 -1 79
-33 33 -61 87 -50 98 8 7 137 24 186 24 33 0 68 8 92 20 22 11 48 20 59 20 24
0 37 18 23 32 -8 8 -56 8 -164 0 -83 -6 -154 -9 -157 -6 -3 3 -1 11 4 18 76
107 110 164 102 173 -3 2 -20 -16 -39 -41 -34 -46 -54 -59 -45 -28 3 9 21 60
41 114 19 53 46 147 59 210 20 97 26 113 44 116 11 2 25 14 31 27 11 24 11 24
143 18 121 -6 133 -5 145 12 21 28 18 33 -26 45 -22 6 -55 26 -73 45 -45 47
-66 46 -38 -1 12 -19 21 -37 21 -40 0 -13 -117 -1 -165 17 -81 30 -75 50 23
79 79 23 112 43 112 67 0 16 -1 16 -75 -2 -77 -18 -97 -19 -93 -1 5 21 138
158 156 160 9 2 15 5 13 7 -6 6 44 59 56 59 5 0 22 -13 38 -30 16 -16 39 -30
51 -30 12 0 27 -7 34 -15 10 -13 15 -12 30 8 10 12 22 18 26 14 10 -10 10
-122 2 -217 -17 -174 -22 -293 -32 -655 -8 -290 -16 -425 -40 -680 -8 -82 -12
-153 -9 -158 3 -5 6 -33 8 -63 3 -47 1 -55 -13 -52 -9 2 -21 13 -27 26 -12 27
-29 29 -20 2 6 -20 -9 -28 -20 -10 -10 16 -22 12 -40 -16 -15 -24 -15 -28 -2
-41 17 -17 69 -10 64 8 -3 18 22 22 29 5 9 -24 -4 -66 -21 -66 -9 0 -24 5 -35
12 -22 14 -25 12 -35 -21 -6 -21 -5 -23 14 -18 11 3 21 1 21 -4 0 -5 -5 -9
-11 -9 -6 0 -9 -8 -7 -17 2 -10 -8 -28 -22 -39 -23 -20 -24 -24 -10 -49 13
-24 13 -28 -3 -37 -14 -7 -16 -17 -11 -44 5 -27 3 -34 -9 -34 -10 0 -21 -20
-32 -55 -14 -42 -26 -60 -51 -76 -19 -11 -34 -27 -34 -34 0 -21 95 -94 144
-111 25 -9 46 -20 46 -26 0 -11 -60 -3 -138 19 -30 8 -56 12 -60 8 -11 -10 16
-22 95 -40 95 -23 204 -15 277 18 76 35 161 118 198 193 31 62 46 78 49 52 3
-28 5 -66 7 -126 2 -55 4 -63 20 -60 14 3 16 11 12 48 -9 95 0 196 23 250 15
34 21 72 52 295 8 55 15 170 15 256 0 101 8 226 24 355 13 109 29 251 35 314
7 63 16 151 21 195 6 44 15 143 21 220 6 77 12 154 13 170 2 17 6 73 10 125
28 380 39 542 55 810 18 290 20 308 46 363 15 32 24 65 21 74 -5 12 -1 14 14
10 24 -6 37 10 21 26 -16 16 -14 37 4 37 8 0 15 7 15 15 0 19 28 49 53 58 10
4 17 17 17 32 0 14 6 25 13 25 18 0 66 57 73 87 4 16 2 28 -7 34 -17 10 -1 29
27 33 11 2 20 13 22 27 2 13 38 59 80 104 138 146 225 279 275 420 44 123 102
248 156 334 28 46 68 127 89 180 36 93 37 100 37 226 l0 130 -43 89 c-35 74
-59 106 -136 185 -52 53 -100 110 -109 126 -36 71 -94 345 -83 389 3 12 25 33
48 47 35 21 53 44 96 123 38 69 52 105 48 121 -11 43 -33 41 -121 -15 -34 -21
-89 -27 -83 -8 3 7 15 15 29 19 23 6 23 7 4 14 -11 5 -23 13 -27 19 -14 20 -8
98 9 127 15 26 15 30 1 46 -11 13 -17 52 -22 146 -4 76 -12 143 -21 164 -24
57 -20 80 15 87 17 3 42 17 56 31 28 28 36 30 64 13 23 -15 44 0 34 23 -3 8
-48 52 -100 99 -122 110 -143 141 -165 245 -10 47 -32 117 -49 156 -18 39 -34
97 -37 128 -3 31 -12 68 -19 83 -8 15 -14 58 -14 95 -1 114 -17 249 -35 284
-22 43 -55 79 -72 79 -7 0 -19 -10 -27 -22z m71 -80 c13 -25 18 -67 21 -179 4
-142 4 -146 -22 -198 -34 -66 -49 -57 -67 39 -24 135 3 370 42 370 5 0 16 -15
26 -32z m-1482 -108 c-7 -11 -102 -7 -113 4 -3 3 23 6 57 6 40 0 60 -4 56 -10z
m176 -26 c90 -3 170 -9 179 -14 13 -8 12 -9 -3 -10 -11 0 -18 -7 -16 -17 3
-33 -1 -35 -27 -14 -14 11 -32 17 -40 14 -8 -3 -21 1 -30 8 -14 11 -18 10 -30
-6 -13 -18 -15 -18 -31 -2 -15 15 -17 15 -28 0 -6 -8 -28 -16 -48 -18 -43 -2
-52 -8 -43 -30 4 -12 18 -15 63 -12 70 4 94 -16 87 -73 -5 -34 -5 -34 11 -13
14 18 21 20 51 12 39 -11 67 -2 40 13 -17 10 -22 63 -6 73 5 3 20 -1 32 -9 16
-10 28 -12 38 -6 32 21 50 12 50 -25 0 -39 -21 -55 -44 -36 -10 8 -16 8 -25
-3 -17 -20 17 -38 58 -30 30 6 31 8 31 59 0 30 3 60 6 69 4 11 -1 15 -22 13
-36 -3 -40 15 -8 30 28 13 44 11 189 -29 111 -31 229 -81 255 -108 3 -3 23
-17 46 -33 83 -56 167 -157 223 -267 30 -58 65 -120 78 -138 14 -18 22 -40 19
-48 -5 -13 -12 -10 -35 15 -16 17 -35 31 -42 31 -8 0 -7 -6 4 -18 10 -10 17
-22 17 -25 0 -15 -168 -6 -244 13 -43 11 -94 20 -112 20 -33 0 -34 -2 -34 -37
0 -38 0 -38 -44 -40 -28 -1 -49 4 -57 13 -9 11 -7 14 10 14 26 0 28 26 2 40
-38 20 -58 12 -74 -28 -20 -49 -52 -71 -95 -64 -42 6 -192 -29 -192 -45 0 -7
8 -17 18 -22 15 -9 15 -12 2 -21 -25 -16 -36 -12 -64 25 -36 46 -64 62 -73 39
-4 -10 0 -22 11 -30 10 -7 15 -18 11 -24 -4 -6 1 -20 11 -31 17 -18 15 -21
-16 -23 -20 -1 -26 -36 -6 -36 8 0 27 5 41 10 23 9 25 13 15 25 -7 9 -10 18
-7 21 8 8 57 -38 57 -54 0 -31 25 -3 28 32 3 31 6 36 20 30 9 -3 25 -6 35 -6
9 0 17 -2 17 -6 0 -9 60 -37 80 -37 24 0 25 -36 1 -42 -16 -4 -19 -11 -15 -29
6 -24 -14 -184 -23 -184 -2 0 -15 7 -29 16 -24 16 -26 16 -55 -12 -29 -28 -31
-28 -44 -11 -8 11 -11 25 -9 32 3 7 1 16 -5 19 -5 3 -12 -7 -16 -23 -8 -38
-20 -47 -75 -54 -33 -4 -49 -2 -62 10 -14 12 -23 13 -48 4 -21 -7 -54 -7 -103
-1 -40 5 -93 10 -119 10 -40 0 -48 -3 -48 -19 0 -23 69 -51 128 -51 24 0 64
-5 89 -11 38 -10 48 -18 60 -47 13 -32 13 -35 -6 -49 -31 -21 -26 -36 9 -28
25 6 30 3 36 -19 8 -32 -3 -48 -27 -41 -13 4 -19 2 -19 -9 0 -9 -4 -16 -10
-16 -5 0 -25 -13 -43 -30 -19 -16 -46 -30 -59 -30 -14 0 -72 16 -129 36 -57
19 -112 38 -122 41 -16 5 -18 14 -14 72 5 70 37 195 56 214 6 6 11 18 11 27 0
8 7 28 16 45 18 36 11 75 -15 75 -23 0 -35 -15 -52 -65 -7 -22 -19 -47 -26
-56 -7 -8 -13 -23 -13 -31 0 -15 -46 -127 -82 -200 -16 -33 -34 -35 -119 -9
-35 10 -77 22 -94 25 -16 3 -59 15 -95 26 -36 10 -112 31 -170 46 -58 15 -106
29 -108 30 -2 1 2 11 9 22 16 25 80 62 107 62 12 0 24 5 27 11 4 6 36 24 71
41 73 35 87 48 82 79 -4 28 -51 44 -69 23 -22 -26 -74 -9 -63 21 3 7 1 16 -5
20 -6 3 -15 -5 -21 -19 -8 -23 -12 -25 -35 -16 -36 14 -43 13 -48 -7 -4 -15
-5 -14 -6 3 0 11 13 42 30 69 32 50 124 145 140 145 5 0 15 15 23 33 20 50 67
84 125 92 28 4 55 13 62 21 6 8 18 14 25 14 8 0 14 10 14 24 0 37 10 56 31 56
21 0 25 -20 8 -37 -20 -20 -2 -43 32 -43 23 0 30 4 25 15 -3 9 8 25 30 42 24
18 34 32 31 45 -7 26 39 24 53 -2 6 -10 16 -17 23 -14 7 2 42 -5 77 -16 53
-17 69 -19 93 -9 15 6 26 17 24 23 -7 19 13 47 31 42 9 -2 32 -7 50 -11 29 -6
32 -5 32 19 0 16 6 26 14 26 9 0 12 -7 9 -19 -4 -16 3 -22 34 -30 60 -17 85
-13 110 16 27 30 29 43 9 43 -23 0 -31 22 -13 35 10 7 17 17 17 23 0 6 6 15
14 19 8 4 16 19 18 33 2 17 9 25 23 25 28 0 33 -35 6 -42 -29 -7 -26 -20 14
-65 24 -26 34 -45 30 -57 -7 -22 21 -37 40 -21 7 6 17 10 21 9 16 -4 64 20 64
31 0 7 18 10 48 8 40 -3 47 -6 50 -25 4 -28 18 -30 25 -4 4 18 54 38 65 26 4
-3 0 -15 -7 -27 -12 -19 -11 -23 4 -34 25 -18 35 -9 35 32 0 19 7 46 16 60 14
20 22 24 46 19 24 -6 30 -3 35 13 8 33 33 35 63 7 25 -24 98 -39 73 -14 -6 6
-17 12 -24 13 -42 8 -90 46 -59 46 6 0 15 11 20 25 10 27 29 31 61 15 22 -12
25 -2 6 25 -10 12 -19 15 -28 9 -8 -5 -22 -7 -31 -6 -12 2 -18 -3 -18 -17 0
-14 -6 -21 -18 -21 -10 0 -23 -5 -29 -11 -15 -15 -34 -2 -26 17 4 11 13 14 29
10 29 -8 34 20 7 40 -10 7 -18 25 -18 41 0 25 -4 28 -47 36 -40 8 -50 6 -68
-11 l-21 -19 30 -6 c31 -6 56 -39 48 -61 -3 -7 -24 -12 -53 -11 -44 0 -49 3
-52 24 l-4 23 -15 -21 c-8 -12 -19 -18 -25 -15 -5 4 -22 -2 -36 -13 -15 -11
-39 -23 -54 -27 -16 -3 -28 -11 -28 -16 0 -6 -9 -10 -21 -10 -15 0 -19 5 -15
15 6 17 -5 20 -20 5 -7 -7 -18 -5 -35 8 -35 27 -90 53 -100 46 -5 -3 -9 -11
-9 -18 0 -8 -7 -19 -15 -26 -8 -7 -15 -22 -15 -34 0 -11 -4 -27 -9 -35 -7 -11
-13 -9 -30 8 -26 26 -31 26 -31 1 0 -21 -24 -27 -49 -11 -10 6 -11 13 -2 29
15 29 15 29 -25 30 -36 1 -36 1 -19 -18 10 -11 15 -23 11 -27 -11 -11 -39 11
-54 40 -7 15 -18 27 -23 27 -6 0 -15 14 -21 31 -12 36 -41 36 -46 -1 -4 -28
-34 -60 -56 -60 -25 0 -30 -21 -7 -27 29 -7 21 -27 -12 -31 -15 -2 -32 -12
-38 -23 -11 -21 -34 -15 -25 7 3 7 1 16 -4 19 -4 3 -11 -8 -15 -25 -8 -37 -17
-37 -49 -5 -28 28 -56 33 -56 9 0 -11 -5 -14 -16 -10 -10 4 -25 -1 -35 -10
-17 -15 -18 -15 -25 11 -5 20 -11 25 -25 21 -61 -19 -59 -19 -57 5 3 18 -4 25
-32 33 -44 12 -42 10 -34 29 4 13 10 14 24 7 30 -16 40 -12 40 15 0 27 18 32
51 14 36 -19 59 -19 69 2 7 11 21 19 38 19 15 0 52 7 82 15 30 8 79 15 108 15
28 0 52 2 52 4 0 2 3 11 6 20 4 9 -5 25 -21 40 l-27 25 21 30 c12 16 21 34 21
40 0 14 -17 14 -26 0 -3 -6 -18 -9 -32 -6 -29 6 -77 -21 -77 -43 0 -8 -9 -16
-19 -18 -14 -3 -17 0 -12 13 4 11 2 15 -6 11 -7 -2 -32 -10 -56 -17 -27 -7
-41 -16 -38 -24 3 -9 -15 -12 -66 -13 -38 -1 -75 -5 -81 -9 -7 -5 -28 -13 -47
-18 -28 -9 -36 -16 -38 -40 -2 -17 -8 -36 -14 -42 -14 -18 -47 -16 -54 2 -4
10 -10 12 -18 7 -17 -14 -66 -21 -72 -10 -3 4 -10 6 -15 2 -11 -6 -2 -46 13
-55 6 -4 4 -18 -6 -35 l-15 -29 -1 34 c0 33 -1 33 -19 17 -10 -9 -32 -18 -50
-21 -29 -3 -31 -1 -31 26 0 22 5 29 20 29 12 0 17 5 14 14 -8 22 -57 4 -72
-27 -14 -28 -26 -34 -37 -17 -13 21 -45 10 -51 -17 -3 -16 -7 -33 -9 -40 -5
-17 30 -44 48 -38 11 5 18 -4 27 -30 17 -51 8 -68 -26 -53 -22 10 -28 10 -32
0 -2 -6 -12 -12 -22 -12 -10 0 -20 -7 -24 -15 -6 -18 -66 -21 -83 -4 -8 8 -9
18 0 36 8 19 7 27 -6 40 -20 20 -36 9 -21 -15 25 -40 -21 -93 -53 -61 -15 15
-43 4 -43 -15 0 -9 14 -23 31 -32 38 -19 29 -30 -31 -38 -76 -10 -79 -11 -115
-46 l-35 -34 35 -17 c20 -10 59 -25 88 -35 70 -22 85 -38 30 -31 -42 5 -43 4
-43 -24 0 -39 -36 -41 -51 -3 -9 25 -11 25 -27 11 -24 -22 -38 -9 -45 43 -4
25 -10 60 -13 78 -7 35 12 66 47 77 11 4 47 33 81 66 35 33 72 59 83 59 14 0
34 20 63 65 44 65 78 96 122 110 37 11 203 105 220 124 20 23 101 53 240 91
63 17 139 40 168 51 58 20 221 44 255 36 12 -3 42 -2 67 2 25 4 48 6 52 4 3
-2 80 -6 169 -9z m822 -98 c18 -14 50 -33 72 -43 60 -27 213 -121 272 -167 62
-48 75 -85 49 -141 -9 -19 -21 -35 -25 -35 -16 0 -91 67 -135 120 -25 30 -58
70 -73 89 -15 19 -70 68 -120 108 -51 41 -93 78 -93 83 0 17 20 11 53 -14z
m-1276 -61 c3 -9 3 -18 1 -21 -9 -9 -38 8 -38 22 0 19 29 18 37 -1z m-156 -58
c-17 -17 -22 -2 -9 29 11 28 12 29 16 5 2 -13 -1 -28 -7 -34z m1189 -94 c0 -5
-7 -17 -15 -27 -12 -16 -18 -17 -28 -7 -10 10 -8 15 7 27 22 15 36 18 36 7z
m-1323 -58 c-7 -16 -37 -21 -37 -5 0 10 32 31 39 25 2 -2 1 -11 -2 -20z m1829
-137 c4 -12 0 -26 -9 -35 -13 -13 -19 -8 -54 43 -48 70 -73 118 -73 136 1 17
127 -117 136 -144z m-2486 60 c-36 -33 -81 -68 -101 -78 -19 -10 -41 -26 -48
-34 -8 -9 -20 -16 -27 -16 -34 0 -7 34 79 102 123 98 140 108 152 96 7 -7 -12
-30 -55 -70z m574 73 c7 -10 -22 -37 -30 -28 -9 8 3 37 15 37 5 0 12 -4 15 -9z
m666 -9 c0 -41 -61 -79 -74 -46 -11 28 3 56 24 49 10 -3 21 -1 25 5 10 16 25
12 25 -8z m630 -4 c0 -16 -3 -19 -11 -11 -6 6 -8 16 -5 22 11 17 16 13 16 -11z
m-1400 -30 c0 -11 -21 -10 -39 1 -8 5 -11 16 -7 26 6 17 8 17 26 0 11 -10 20
-22 20 -27z m520 -29 c0 -18 -2 -19 -15 -9 -8 7 -15 16 -15 21 0 5 7 9 15 9 9
0 15 -9 15 -21z m419 12 c11 -7 9 -11 -9 -21 -18 -10 -24 -9 -31 1 -15 25 11
38 40 20z m-661 -41 c9 0 10 -13 6 -42 -4 -24 -8 -44 -9 -46 -2 -2 -19 0 -40
4 -23 4 -34 11 -31 19 4 12 -32 55 -48 55 -4 0 -4 -10 -1 -21 6 -19 4 -21 -16
-16 -13 3 -28 2 -35 -4 -8 -7 -14 -7 -19 0 -3 6 7 16 22 23 15 6 35 21 44 31
15 19 18 19 40 3 34 -23 52 -21 43 7 -6 21 -6 21 13 5 11 -10 25 -18 31 -18z
m70 7 c2 -10 -4 -20 -13 -23 -21 -8 -25 -3 -18 24 6 25 26 24 31 -1z m-278
-47 c0 -21 -37 -38 -69 -32 -48 10 -49 28 -4 39 39 9 73 6 73 -7z m-226 -35
c21 -14 24 -14 36 0 11 14 14 13 24 -7 6 -13 23 -25 36 -26 14 -2 33 -11 43
-19 16 -15 17 -14 17 5 0 13 6 22 15 22 22 0 19 -56 -6 -96 -23 -39 -48 -43
-74 -14 -21 24 -51 26 -59 5 -3 -10 -19 -15 -46 -15 -22 0 -40 -4 -40 -10 0
-5 10 -10 23 -10 28 0 53 -15 39 -24 -6 -3 -23 -2 -37 4 -22 8 -30 7 -39 -5
-6 -9 -22 -14 -36 -13 -17 2 -25 -2 -25 -12 0 -10 12 -16 38 -18 28 -2 37 0
37 12 0 17 15 21 25 7 3 -5 19 -12 36 -16 17 -4 33 -13 36 -21 6 -17 -42 -73
-112 -131 -48 -38 -58 -42 -97 -39 -23 2 -51 0 -60 -5 -20 -11 -48 13 -48 41
0 11 -10 24 -21 31 -18 9 -27 7 -50 -10 -29 -22 -49 -21 -49 2 0 17 55 67 73
67 12 0 123 45 135 55 6 5 11 109 6 117 -3 5 -14 2 -24 -7 -22 -20 -64 -16
-67 5 -3 15 67 70 88 70 5 0 7 5 4 10 -12 19 26 23 40 4 13 -18 14 -18 20 -1
4 9 15 17 25 17 10 0 28 9 41 20 29 24 25 23 53 5z m-304 -122 c0 -22 -2 -25
-10 -13 -13 20 -13 40 0 40 6 0 10 -12 10 -27z m391 -63 c5 0 9 -4 9 -10 0
-12 -47 -13 -54 -1 -8 12 6 22 22 16 7 -3 18 -5 23 -5z m1536 -36 c2 -20 5
-41 6 -47 3 -16 -41 -21 -58 -7 -16 13 -9 40 11 40 8 0 14 10 14 23 0 24 10
41 18 32 3 -3 7 -21 9 -41z m248 0 c6 -9 31 -15 60 -16 54 -2 85 -12 85 -29 0
-6 11 -24 25 -41 14 -16 25 -36 25 -44 0 -19 -57 -72 -99 -90 -33 -15 -35 -15
-53 8 -10 12 -16 29 -13 36 7 19 -19 25 -70 18 -43 -7 -62 -29 -32 -39 9 -3 9
-7 -1 -20 -14 -17 -8 -57 9 -57 20 0 7 -19 -27 -39 -27 -16 -45 -20 -70 -15
-27 5 -33 3 -29 -8 8 -21 -23 -43 -59 -43 -26 0 -31 -3 -28 -22 3 -25 -33 -42
-52 -23 -24 24 -14 340 11 340 2 0 28 -16 58 -35 53 -34 56 -34 111 -24 32 6
68 9 81 6 27 -5 38 6 20 21 -8 7 -27 7 -57 1 -89 -19 -120 -20 -127 -3 -3 9 0
20 8 24 7 5 14 17 15 27 2 49 5 54 22 51 9 -1 31 5 49 14 31 15 43 14 43 -4 0
-4 -9 -8 -21 -8 -12 0 -19 -5 -16 -12 6 -21 41 -15 45 7 7 43 11 47 44 39 18
-3 37 -13 43 -20z m-445 -14 c9 -18 8 -20 -15 -20 -24 0 -34 18 -18 33 11 12
22 8 33 -13z m-2036 -94 c48 -73 47 -86 -7 -86 -58 0 -113 31 -109 61 3 26 49
79 68 79 7 0 28 -24 48 -54z m3241 24 c10 -11 26 -22 37 -26 23 -7 41 -49 33
-75 -4 -13 -16 -19 -34 -19 -24 0 -31 6 -44 43 -33 91 -30 119 8 77z m-3603
-60 c-1 -14 -25 -59 -52 -100 -27 -41 -56 -92 -66 -112 -10 -21 -22 -38 -27
-38 -18 0 1 106 28 161 48 97 125 154 117 89z m3498 11 c0 -23 -16 -36 -25
-21 -9 14 1 40 15 40 5 0 10 -9 10 -19z m-3415 -61 c7 -12 -52 -120 -66 -120
-29 0 -12 66 29 113 17 19 28 22 37 7z m355 -21 c0 -24 -25 -35 -45 -19 -13
10 -12 15 8 30 25 21 37 17 37 -11z m2930 -31 c0 -10 -5 -18 -10 -18 -15 0
-23 27 -16 47 6 15 8 15 16 3 6 -8 10 -23 10 -32z m-3220 14 c0 -4 -11 -38
-25 -76 -14 -38 -25 -82 -25 -97 0 -15 -5 -31 -12 -35 -17 -11 -38 26 -32 55
12 50 67 161 80 161 8 0 14 -3 14 -8z m633 -17 c-3 -8 -9 -15 -14 -15 -10 0
-12 24 -3 33 11 11 24 -3 17 -18z m2297 15 c0 -15 -38 -32 -45 -20 -3 5 -3 15
0 20 8 13 45 13 45 0z m487 -2 c6 -8 7 -95 2 -222 -6 -169 -10 -211 -23 -224
-14 -14 -16 -13 -26 14 -7 16 -12 96 -13 179 -2 121 2 161 16 208 19 58 27 67
44 45z m-737 -28 c-6 -11 -15 -20 -20 -20 -6 0 -5 9 2 20 7 11 16 20 21 20 4
0 3 -9 -3 -20z m-2594 -11 c4 -7 -1 -16 -10 -21 -22 -12 -20 -45 3 -58 28 -14
28 -14 41 25 6 19 17 35 24 35 25 0 74 -22 79 -35 10 -24 -41 -84 -76 -90 -34
-7 -32 -1 -38 -102 -1 -27 -32 -30 -83 -9 -24 10 -36 23 -40 44 -8 35 18 166
39 198 16 25 49 32 61 13z m394 -14 c0 -18 -5 -25 -20 -25 -21 0 -24 8 -14 34
10 25 34 19 34 -9z m470 -1 c0 -9 -102 -54 -123 -54 -4 0 -12 10 -18 22 -9 17
-9 24 5 33 21 16 136 15 136 -1z m1981 -149 c3 -71 9 -141 14 -154 6 -18 5
-23 -6 -19 -7 2 -17 20 -20 38 -4 19 -12 36 -18 38 -6 2 -11 19 -11 38 0 47
-22 96 -55 122 -16 12 -25 25 -22 28 3 3 15 -4 26 -15 27 -27 35 -27 28 1 -9
31 10 60 36 56 21 -3 22 -9 28 -133z m173 99 c11 -28 6 -64 -8 -64 -18 0 -27
26 -20 56 7 28 19 31 28 8z m-2839 -61 c-9 -52 -22 -73 -45 -73 -17 0 -18 3
-8 33 26 76 66 105 53 40z m2948 -155 c-1 -100 -6 -185 -12 -191 -5 -5 -23 -6
-43 -1 -18 4 -40 8 -48 8 -12 1 -14 15 -12 81 2 44 10 114 18 155 13 66 20 79
52 107 20 17 39 30 41 27 3 -3 5 -86 4 -186z m-213 152 c0 -11 -4 -20 -10 -20
-5 0 -10 9 -10 20 0 11 5 20 10 20 6 0 10 -9 10 -20z m278 -155 c1 -87 -1
-152 -7 -158 -11 -11 -17 10 -26 96 -7 79 5 219 19 214 7 -2 12 -55 14 -152z
m-3532 77 c-14 -39 -33 -46 -27 -9 5 32 21 58 31 52 5 -3 3 -22 -4 -43z m2935
21 c16 -43 8 -68 -21 -65 l-25 2 28 -22 c45 -37 59 -118 34 -190 l-13 -38 -64
72 c-45 50 -78 77 -112 91 -26 11 -48 25 -48 32 0 7 19 22 43 33 l42 20 3 -34
c4 -48 22 -42 22 7 0 32 4 42 20 46 11 3 18 9 15 13 -7 11 34 60 51 60 8 0 19
-12 25 -27z m169 -8 c0 -8 -7 -15 -15 -15 -16 0 -20 12 -8 23 11 12 23 8 23
-8z m-418 -37 c-6 -6 -15 -8 -19 -4 -4 4 -1 11 7 16 19 12 27 3 12 -12z
m-1614 -14 c49 -21 124 -42 192 -54 242 -44 255 -50 246 -124 -8 -71 -46 -107
-76 -71 -18 21 -43 19 -59 -6 -17 -29 -31 -9 -31 46 0 22 -4 46 -9 54 -14 22
-41 5 -41 -27 0 -24 -17 -89 -26 -100 -1 -2 -15 3 -32 12 -16 8 -38 13 -49 10
-12 -3 -24 -1 -27 5 -4 6 -19 11 -33 11 -39 0 -90 45 -117 103 -37 77 -41 103
-22 132 19 29 33 31 84 9z m-912 -72 c-3 -21 -9 -61 -12 -90 -7 -57 -17 -70
-40 -51 -12 10 -14 26 -8 83 4 39 11 81 15 94 8 20 12 21 30 12 17 -10 20 -18
15 -48z m698 5 c13 -37 -2 -51 -40 -37 -38 15 -46 31 -27 53 23 25 56 18 67
-16z m-571 -11 c12 4 17 1 17 -12 0 -24 -9 -36 -38 -52 -43 -24 -69 28 -41 80
l11 21 17 -22 c11 -14 23 -20 34 -15z m341 5 c-8 -34 -23 -49 -32 -35 -4 6
-17 16 -29 23 -41 21 -27 35 39 37 25 1 27 -2 22 -25z m-604 -15 c0 -26 -15
-43 -24 -28 -7 12 4 52 15 52 5 0 9 -11 9 -24z m464 -38 c15 -24 -9 -47 -55
-54 -33 -6 -40 -11 -47 -38 l-9 -31 -82 1 c-59 1 -86 5 -92 15 -6 11 0 15 26
17 30 3 35 7 35 28 0 14 7 27 15 31 21 8 30 -3 17 -20 -15 -17 -6 -27 25 -27
16 0 27 9 37 34 11 26 24 37 58 49 49 18 58 17 72 -5z m77 -8 c8 -12 25 -21
39 -22 14 0 35 -5 48 -11 19 -9 27 -6 50 16 29 28 56 35 67 17 3 -5 19 -10 34
-10 20 0 44 -14 80 -48 71 -66 68 -75 -21 -66 -54 5 -79 12 -96 28 -19 16 -35
21 -74 19 -57 -3 -81 -17 -73 -44 6 -17 1 -19 -43 -19 -77 0 -143 11 -139 24
2 7 32 11 73 11 54 1 69 4 69 15 0 9 -9 15 -22 15 -32 0 -37 10 -18 39 16 23
16 26 1 32 -9 3 -13 10 -10 15 9 14 21 11 35 -11z m2705 -12 c-8 -39 -13 -45
-28 -30 -9 9 -9 18 0 37 17 37 36 32 28 -7z m-3326 -2 c0 -13 -7 -29 -15 -36
-13 -11 -15 -8 -15 17 0 16 3 33 7 36 13 14 23 6 23 -17z m1629 15 c7 -5 10
-14 6 -20 -5 -9 -10 -9 -21 0 -26 22 -14 38 15 20z m1626 -32 c0 -7 -8 -15
-17 -17 -18 -3 -25 18 -11 32 10 10 28 1 28 -15z m-1542 -28 c-1 -39 -5 -43
-27 -35 -19 7 -21 45 -4 62 19 19 33 8 31 -27z m157 -15 c52 -13 96 -28 98
-34 1 -5 -17 -21 -42 -35 -43 -24 -48 -25 -99 -13 -63 15 -77 22 -77 41 0 14
17 65 22 65 2 0 46 -11 98 -24z m426 9 c9 -24 -15 -45 -51 -45 -62 0 -82 20
-47 46 24 19 91 18 98 -1z m424 -24 c3 -5 19 -12 37 -15 18 -4 42 -15 55 -24
13 -10 41 -24 63 -31 68 -24 111 -61 70 -61 -18 0 -20 -16 -2 -23 6 -3 -24 -3
-68 0 -105 6 -262 37 -311 60 -32 15 -40 24 -42 51 -6 58 -3 60 99 55 51 -2
96 -7 99 -12z m555 -32 c0 -8 -10 -15 -23 -17 -21 -3 -22 -2 -10 17 14 23 33
23 33 0z m-3506 -15 c3 -16 1 -17 -13 -5 -19 16 -21 34 -3 29 6 -3 14 -13 16
-24z m1895 10 c20 -8 21 -28 1 -44 -8 -7 -15 -21 -15 -32 0 -10 -4 -16 -10
-13 -13 8 -13 95 -1 95 5 0 16 -3 25 -6z m1800 -4 c30 -11 35 -30 9 -30 -10 0
-27 -7 -37 -15 -29 -22 -46 -18 -46 10 0 23 10 32 47 44 1 1 13 -3 27 -9z
m-2634 -10 c0 -5 -7 -10 -15 -10 -8 0 -15 5 -15 10 0 6 7 10 15 10 8 0 15 -4
15 -10z m1265 -9 c-16 -14 -77 -31 -88 -24 -17 11 24 33 62 33 20 0 31 -4 26
-9z m-2062 -8 c6 -10 -10 -173 -17 -181 -12 -11 -36 22 -36 49 0 16 -5 38 -12
48 -10 16 -8 26 7 55 18 33 47 47 58 29z m2357 -55 c25 -5 49 -14 54 -19 13
-12 -39 -23 -72 -15 -33 8 -33 8 -108 1 -48 -5 -63 -3 -74 9 -7 9 -19 16 -27
16 -28 0 -6 25 32 36 30 8 52 7 94 -3 31 -8 76 -19 101 -25z m-1675 7 c103
-13 202 -21 293 -24 30 -1 28 -26 -3 -47 -20 -13 -39 -15 -93 -10 -37 3 -139
10 -228 15 -178 9 -223 23 -224 68 0 22 58 22 255 -2z m-601 -11 c10 -26 7
-144 -4 -165 -12 -21 -40 -26 -40 -8 0 37 25 189 31 189 4 0 10 -7 13 -16z
m3656 -8 c0 -17 -14 -29 -23 -20 -8 8 3 34 14 34 5 0 9 -6 9 -14z m-3594 -27
c-3 -17 -6 -40 -6 -50 0 -11 -4 -19 -10 -19 -5 0 -10 23 -10 50 0 39 3 50 16
50 13 0 15 -7 10 -31z m1079 -2 c8 -13 18 -38 21 -56 7 -33 6 -34 -22 -29
-140 25 -174 34 -174 44 0 20 29 36 53 30 17 -4 30 0 42 14 24 27 61 25 80 -3z
m-977 -16 c88 -94 109 -112 130 -118 46 -11 53 -104 9 -120 -12 -4 -28 -6 -35
-4 -7 1 -36 -5 -63 -14 -53 -18 -99 -14 -120 11 -9 11 -8 41 6 137 9 67 19
125 22 130 8 14 25 7 51 -22z m1796 -1 c5 -5 7 -13 3 -16 -9 -9 -76 -9 -110
-1 -25 7 -27 10 -16 24 10 12 25 14 63 9 27 -3 54 -10 60 -16z m-524 -15 c0
-8 -4 -15 -10 -15 -5 0 -10 7 -10 15 0 8 5 15 10 15 6 0 10 -7 10 -15z m-1146
-14 c3 -4 18 -6 32 -3 26 5 54 -16 54 -40 0 -15 -37 -8 -63 12 -14 11 -30 20
-36 20 -6 0 -11 5 -11 10 0 12 17 13 24 1z m2291 -3 c10 -9 -121 -21 -136 -12
-9 5 -8 9 7 15 23 8 120 6 129 -3z m1229 -3 c-4 -8 -10 -15 -15 -15 -5 0 -9 7
-9 15 0 8 7 15 15 15 9 0 12 -6 9 -15z m-161 -9 c3 -12 -30 -32 -39 -24 -11
12 5 40 21 36 9 -2 17 -7 18 -12z m-1917 -7 c24 -6 47 -15 50 -20 9 -15 -59
-49 -96 -49 -43 0 -60 15 -60 52 0 25 4 28 31 28 16 0 50 -5 75 -11z m929 1
c3 -6 -5 -10 -19 -10 -14 0 -28 5 -31 10 -3 6 5 10 19 10 14 0 28 -4 31 -10z
m-2120 -30 c96 -20 95 -19 95 -44 0 -19 -7 -24 -37 -30 -32 -5 -45 -1 -78 23
-21 16 -46 39 -54 51 -14 21 -14 22 4 17 11 -4 43 -11 70 -17z m476 -10 c11 0
19 -4 19 -9 0 -12 -24 -20 -90 -30 -56 -9 -75 4 -49 35 10 12 24 15 58 10 24
-3 52 -6 62 -6z m987 1 c14 -8 -77 -21 -147 -21 -34 1 -35 2 -17 15 22 16 141
21 164 6z m1464 -68 c10 -9 18 -22 18 -30 0 -16 -57 -53 -82 -53 -22 0 -90 59
-82 72 18 29 117 37 146 11z m-2437 -29 c-18 -15 -97 -53 -120 -58 -5 -2 -23
-8 -39 -15 -24 -10 -32 -9 -44 3 -13 12 -12 17 2 38 19 27 85 46 166 47 52 0
54 -1 35 -15z m1325 -14 c13 -9 13 -11 1 -19 -18 -12 -130 -25 -138 -17 -25
25 103 58 137 36z m-613 -57 c3 -7 -8 -15 -24 -18 -39 -8 -144 -36 -161 -43
-10 -3 -13 0 -10 9 2 8 29 26 59 40 57 27 129 34 136 12z m-1077 -33 c0 -27
-5 -43 -15 -47 -25 -9 -29 4 -16 47 15 51 31 51 31 0z m2848 21 c3 -8 -1 -12
-9 -9 -7 2 -15 10 -17 17 -3 8 1 12 9 9 7 -2 15 -10 17 -17z m-2258 -1 c0 -5
-12 -17 -27 -26 -16 -10 -43 -27 -62 -40 -26 -17 -38 -21 -48 -12 -29 24 -10
46 62 75 37 14 75 16 75 3z m1420 -8 c0 -20 -28 -32 -78 -32 -89 0 -52 37 41
39 20 1 37 -3 37 -7z m318 -67 c2 -19 15 -40 34 -57 71 -62 -13 -64 -237 -5
-38 9 -39 11 -15 18 14 4 50 7 80 8 62 1 100 21 100 52 0 34 34 19 38 -16z
m-2813 16 c-14 -13 -83 -26 -70 -13 10 10 37 19 65 21 8 1 10 -2 5 -8z m1135
-6 c0 -14 -47 -39 -99 -52 -24 -6 -25 -5 -11 12 36 44 110 71 110 40z m-380
-10 c0 -12 -53 -80 -63 -80 -7 0 -13 12 -15 28 -3 23 2 30 30 42 35 15 48 18
48 10z m-627 -18 c9 -24 -6 -34 -60 -42 -78 -10 -87 5 -17 31 71 28 71 27 77
11z m-158 -37 c3 -5 -3 -10 -14 -10 -12 0 -21 5 -21 10 0 6 6 10 14 10 8 0 18
-4 21 -10z m503 -40 c3 -16 -5 -30 -25 -46 -39 -32 -46 -30 -38 14 10 59 56
82 63 32z m-355 -36 c6 -7 -10 -56 -22 -64 -4 -3 -24 -24 -45 -48 -32 -35 -36
-45 -26 -57 23 -27 63 -18 88 21 21 32 26 34 57 28 27 -5 36 -2 41 10 6 16 34
23 34 9 0 -4 -7 -28 -17 -53 -21 -57 -93 -134 -158 -167 -27 -14 -68 -41 -90
-60 -22 -19 -44 -38 -50 -42 -5 -4 -29 -29 -52 -54 -43 -48 -73 -60 -73 -31 0
30 42 134 52 128 5 -3 4 3 -3 15 -12 17 -10 24 9 50 29 39 28 69 -3 101 -24
25 -25 31 -19 93 l7 67 34 0 c23 0 42 8 60 26 21 22 33 25 63 21 21 -3 44 -1
51 4 16 10 53 12 62 3z m461 -20 c13 -34 2 -45 -118 -108 -69 -36 -128 -66
-131 -66 -39 0 112 136 162 146 19 4 35 14 38 25 8 23 41 25 49 3z m2706 -70
c0 -8 -4 -14 -10 -14 -5 0 -10 9 -10 21 0 11 5 17 10 14 6 -3 10 -13 10 -21z
m-890 -155 c47 -12 64 -24 55 -39 -18 -28 -130 11 -143 50 -5 13 3 12 88 -11z
m-2660 -38 c0 -31 -90 -245 -105 -248 -14 -4 -13 3 11 77 12 36 32 100 44 142
19 62 26 75 37 67 7 -6 13 -24 13 -38z m2177 13 c2 -7 -8 -15 -22 -18 -39 -10
-29 -40 15 -46 23 -3 31 -8 23 -13 -7 -5 -13 -19 -13 -33 0 -14 -8 -36 -17
-51 -9 -14 -16 -39 -15 -55 1 -16 -2 -37 -8 -48 -7 -13 -7 -21 1 -25 6 -4 7
-14 4 -24 -27 -64 -47 -215 -35 -262 5 -19 17 -60 26 -92 l18 -58 -28 -25
c-21 -21 -25 -29 -15 -40 9 -11 9 -17 0 -28 -9 -11 -6 -22 14 -51 30 -44 30
-51 8 -59 -12 -5 -14 -9 -5 -18 7 -7 12 -19 12 -28 0 -22 -57 -102 -82 -114
-12 -6 -37 -33 -55 -61 -19 -27 -38 -51 -42 -53 -4 -1 -12 17 -18 40 -10 36
-9 52 7 98 10 30 23 100 30 155 6 55 14 119 16 143 4 33 9 42 25 42 23 0 24 8
2 39 -14 20 -16 49 -14 190 3 273 3 284 -4 346 -4 33 -3 76 2 95 8 29 15 36
43 41 20 4 40 3 47 -3 8 -7 16 -3 25 12 13 21 48 24 55 4z m49 -13 c-4 -5 -13
-8 -22 -4 -11 4 -12 8 -3 20 14 16 36 2 25 -16z m548 20 c3 -5 -1 -11 -9 -15
-15 -6 -29 7 -18 18 9 9 21 8 27 -3z m-826 -55 c-2 -15 -7 -28 -13 -29 -12 -2
-19 38 -10 60 9 25 27 1 23 -31z m-1408 6 c0 -16 -47 -52 -78 -62 -51 -14 -40
15 16 44 51 27 62 30 62 18z m3119 -62 c7 -24 22 -55 32 -68 14 -18 16 -29 8
-43 -14 -27 -33 -23 -64 13 -18 21 -25 38 -21 52 4 12 9 40 13 64 7 50 14 45
32 -18z m-3615 -7 c-8 -45 -21 -73 -34 -73 -14 0 -12 19 8 67 21 53 35 56 26
6z m1486 7 c0 -5 -7 -10 -15 -10 -8 0 -15 5 -15 10 0 6 7 10 15 10 8 0 15 -4
15 -10z m2564 -56 c68 -108 74 -249 16 -406 -17 -49 -35 -90 -38 -92 -4 -2 -6
107 -6 242 1 194 -1 251 -12 268 -13 19 -10 35 5 34 3 -1 19 -21 35 -46z
m-3273 -15 c14 -7 30 -7 55 1 20 7 37 10 39 8 2 -1 -7 -15 -19 -31 -17 -21
-34 -29 -73 -33 -42 -5 -51 -4 -57 11 -16 43 13 67 55 44z m559 -10 c0 -5 -6
-9 -12 -9 -7 0 -25 -6 -40 -14 -29 -15 -83 -29 -95 -25 -5 2 -7 9 -5 16 1 6
-10 13 -25 15 l-28 4 28 8 c22 7 31 4 41 -9 12 -17 16 -17 67 8 52 24 69 26
69 6z m-237 -36 c-13 -9 -23 -26 -23 -39 0 -19 -5 -24 -28 -24 -15 0 -59 -7
-97 -16 -39 -9 -90 -19 -115 -21 -24 -3 -55 -12 -68 -21 -23 -15 -23 -15 -20
18 3 33 3 33 88 51 47 9 126 29 175 42 107 30 117 31 88 10z m1037 -43 c0 -5
-7 -10 -15 -10 -8 0 -15 5 -15 10 0 6 7 10 15 10 8 0 15 -4 15 -10z m-2306
-128 c14 -27 13 -30 -18 -70 -34 -42 -46 -45 -46 -8 0 22 35 106 44 106 3 0
12 -13 20 -28z m3723 -27 c9 -25 -2 -27 -22 -5 -17 18 -17 20 -1 20 9 0 19 -7
23 -15z m-3627 -18 c0 -7 -7 -22 -15 -33 -14 -18 -14 -18 -15 7 0 14 3 29 7
32 11 11 23 8 23 -6z m3800 -11 c0 -7 -7 -19 -15 -26 -10 -9 -15 -32 -15 -76
0 -58 -2 -64 -21 -64 -18 0 -20 -4 -15 -26 4 -14 2 -32 -4 -40 -17 -19 -3 -34
31 -34 45 0 31 -24 -17 -28 -21 -2 -43 -8 -48 -13 -13 -12 -43 -11 -51 2 -4 5
0 18 9 28 9 10 16 23 16 29 0 7 9 17 20 24 21 13 27 38 10 38 -22 0 -8 36 20
52 23 13 30 24 30 48 0 16 -4 30 -10 30 -19 0 -10 29 16 49 31 24 44 26 44 7z
m-1130 -3 c0 -14 -19 -38 -25 -32 -8 8 5 39 16 39 5 0 9 -3 9 -7z m1390 -65
c0 -60 -11 -100 -23 -82 -8 14 5 144 14 144 5 0 9 -28 9 -62z m-2549 -23 c19
7 54 -19 46 -33 -8 -11 -94 11 -112 29 -17 17 17 30 36 13 9 -8 23 -12 30 -9z
m-1594 -1 c2 -5 -7 -21 -19 -34 -19 -21 -23 -22 -26 -8 -7 37 34 75 45 42z
m2981 -9 c11 -14 36 -32 55 -40 36 -15 41 -14 166 21 17 5 22 3 19 -6 -7 -21
-105 -72 -177 -92 l-66 -18 -23 27 c-12 16 -27 33 -32 40 -21 26 -23 66 -5 80
27 19 41 16 63 -12z m-1542 -44 c-31 -32 -80 -47 -184 -54 -45 -4 -62 -2 -59
6 2 7 14 14 28 15 13 2 28 10 32 18 6 10 13 11 31 3 18 -9 30 -6 57 10 19 12
46 21 60 21 16 0 30 7 33 17 5 12 9 14 18 5 9 -9 5 -19 -16 -41z m1284 -14 c0
-14 -20 -37 -32 -37 -10 0 -11 34 -1 43 11 12 33 8 33 -6z m-1652 -33 c33 -9
27 -32 -14 -49 -29 -12 -35 -19 -31 -36 7 -28 -14 -19 -32 13 -13 23 -13 29 2
52 18 26 34 31 75 20z m1462 -25 c0 -20 -24 -26 -35 -9 -4 6 -4 17 -1 25 7 20
36 7 36 -16z m1182 -1 c-15 -15 -24 -6 -16 16 5 12 10 14 17 7 8 -8 8 -14 -1
-23z m-387 -96 c-8 -79 -18 -103 -36 -85 -11 11 0 71 27 152 11 32 16 -3 9
-67z m-775 42 c0 -18 -34 -18 -49 -1 -15 18 -6 25 24 19 14 -2 25 -11 25 -18z
m-1075 -24 l52 -30 82 30 c87 32 88 32 93 -25 3 -29 1 -30 -32 -28 -19 1 -72
-7 -117 -18 -49 -12 -106 -19 -140 -17 l-58 3 -25 48 c-22 41 -23 49 -10 57
31 20 101 11 155 -20z m-505 -15 c0 -30 -15 -33 -30 -6 -14 27 -13 31 10 31
15 0 20 -7 20 -25z m2724 10 c-4 -9 0 -15 10 -15 9 0 16 -4 16 -9 0 -15 -27
-20 -39 -8 -16 16 -14 47 4 47 9 0 12 -6 9 -15z m-1710 -21 c9 -22 -3 -32 -14
-14 -12 19 -12 30 -1 30 5 0 12 -7 15 -16z m566 -44 c0 -34 4 -42 29 -55 19
-9 32 -25 36 -45 6 -27 11 -30 43 -30 20 -1 54 -7 75 -14 37 -13 38 -13 35 8
-2 16 3 22 25 24 22 3 27 -1 27 -17 0 -24 25 -28 34 -6 8 22 34 18 47 -7 13
-24 28 -38 43 -38 5 0 1 9 -9 20 -10 11 -16 23 -12 26 3 3 33 6 66 6 l61 0 19
43 19 44 52 -1 52 -1 -5 -46 c-3 -25 -9 -47 -15 -49 -5 -1 -8 -11 -5 -21 3
-10 0 -22 -6 -25 -6 -4 -11 -21 -11 -37 0 -23 -13 -44 -51 -84 -28 -29 -66
-64 -84 -76 -19 -13 -36 -32 -39 -41 -6 -25 -24 -22 -28 5 -3 20 -6 18 -32
-20 -21 -32 -27 -49 -22 -69 4 -15 3 -23 -2 -20 -6 3 -13 -20 -17 -51 -5 -41
-14 -65 -31 -82 -13 -13 -24 -33 -24 -44 0 -26 -38 -67 -62 -67 -14 0 -17 -5
-12 -24 4 -17 -2 -31 -26 -55 -25 -24 -31 -38 -28 -60 3 -22 1 -28 -11 -23
-10 4 -13 1 -8 -12 9 -22 -14 -96 -30 -96 -7 0 -24 11 -39 24 -55 50 -63 54
-82 49 -14 -3 -21 2 -25 16 -3 12 -11 23 -19 25 -7 2 -35 10 -62 18 l-48 13 6
54 c8 63 11 71 35 71 11 0 23 -14 32 -37 37 -96 38 -98 106 -101 58 -3 63 -1
96 31 19 19 37 50 41 68 3 18 -1 87 -10 153 -13 95 -21 125 -36 138 -11 10
-24 15 -29 12 -5 -3 -9 -41 -9 -84 0 -82 -11 -130 -31 -130 -8 0 -10 14 -6 43
6 45 1 61 -23 69 -10 3 -19 30 -26 84 -18 122 -24 155 -39 209 -12 45 -29 176
-30 232 0 11 -3 25 -7 29 -5 4 -8 20 -8 36 0 32 27 49 41 27 6 -11 9 -8 9 9 0
19 5 22 35 22 34 0 35 -1 35 -40z m1450 -51 c0 -19 -19 -65 -43 -104 -42 -68
-71 -105 -83 -105 -8 0 -14 3 -14 6 0 14 72 153 85 164 8 7 15 23 15 35 0 22
17 37 33 28 4 -2 7 -13 7 -24z m-2173 1 c16 -6 37 -24 47 -40 9 -17 24 -30 32
-30 8 0 23 -5 34 -12 10 -7 22 -9 25 -6 11 11 -16 50 -30 44 -7 -2 -19 2 -27
11 -11 14 -10 16 13 10 19 -5 29 -3 33 8 3 8 10 15 16 15 13 0 13 -98 -1 -175
-41 -240 -42 -249 -12 -253 19 -3 23 3 28 42 5 29 12 46 21 46 11 0 14 -23 14
-109 l0 -110 -51 -58 c-28 -32 -56 -58 -62 -58 -19 0 -20 67 -2 135 13 49 14
65 4 71 -7 4 -18 5 -25 2 -18 -6 -61 -110 -85 -200 -27 -105 -19 -161 28 -214
35 -38 35 -40 18 -59 -10 -11 -24 -20 -30 -20 -7 0 -18 -7 -25 -15 -15 -18
-56 -20 -66 -4 -3 6 0 15 7 20 10 6 11 11 2 20 -6 6 -16 8 -22 5 -14 -9 -14
-49 -1 -62 7 -7 4 -16 -9 -28 -20 -18 -21 -17 -48 14 -15 19 -31 45 -35 60 -4
15 -26 47 -48 72 -57 66 -53 98 5 38 29 -30 49 -37 59 -21 11 18 -6 42 -25 36
-11 -4 -19 -2 -19 4 0 6 -9 11 -19 11 -20 0 -37 32 -26 50 3 5 -12 18 -34 30
-26 13 -38 25 -35 34 8 20 -12 28 -26 11 -7 -8 -16 -12 -22 -9 -5 3 -4 11 3
20 9 11 8 15 -5 20 -34 13 -14 21 36 13 29 -5 54 -7 56 -4 10 9 -56 33 -81 28
-24 -5 -27 -2 -27 21 0 34 25 44 50 21 11 -10 23 -16 26 -12 9 8 -6 67 -17 67
-5 0 -9 12 -9 26 0 15 -10 35 -22 45 -26 23 -38 24 -38 4 0 -8 -7 -15 -15 -15
-8 0 -15 -6 -15 -14 0 -8 7 -16 15 -20 8 -3 15 -10 15 -16 0 -20 -30 -10 -76
25 -25 19 -50 35 -55 35 -5 0 -9 7 -9 15 0 8 7 15 15 15 22 0 19 10 -12 42
-32 34 -59 39 -43 8 8 -16 8 -18 -5 -14 -14 6 -45 57 -45 76 0 5 12 13 26 18
14 6 28 19 31 30 7 25 45 27 68 4 22 -23 41 -4 26 24 -14 27 -14 32 4 32 8 0
15 -6 15 -14 0 -22 17 -29 56 -22 25 5 35 13 40 31 7 28 14 29 65 11 39 -14
73 -7 82 18 4 9 13 16 22 16 10 0 15 10 15 30 0 20 5 30 15 30 8 0 15 4 15 9
0 16 40 23 55 11 12 -10 21 -6 45 20 20 22 29 39 25 51 -7 22 7 24 52 9z
m-828 -58 c6 -10 7 -29 4 -41 -4 -15 1 -29 16 -43 12 -11 20 -26 17 -34 -3 -7
2 -18 12 -23 9 -5 14 -12 10 -16 -10 -11 -86 45 -92 68 -19 70 7 138 33 89z
m-1165 -17 c3 -8 1 -28 -5 -43 -6 -15 -12 -58 -13 -96 -1 -67 0 -69 36 -100
27 -22 46 -54 69 -111 41 -100 103 -197 181 -280 47 -51 56 -65 41 -65 -43 0
-176 144 -282 304 -77 117 -84 133 -85 206 -1 124 35 243 58 185z m3407 -28
c-8 -8 -11 -7 -11 4 0 9 3 19 7 23 4 4 9 2 11 -4 3 -7 -1 -17 -7 -23z m-2136
3 c16 -18 16 -20 1 -26 -20 -8 -21 -6 -30 24 -9 27 5 29 29 2z m383 -48 c2 -7
-6 -12 -17 -12 -21 0 -27 11 -14 24 9 9 26 2 31 -12z m-303 -89 c0 -6 3 -15 8
-19 4 -4 7 -11 7 -16 0 -13 -13 -9 -39 11 -14 11 -21 23 -17 30 10 15 41 10
41 -6z m-1183 -50 c33 -32 37 -63 8 -63 -20 0 -43 28 -55 68 -9 31 12 29 47
-5z m785 -2 c13 -21 8 -32 -13 -24 -14 5 -20 43 -6 43 4 0 13 -9 19 -19z
m-117 -50 c-12 -23 -30 -36 -30 -22 0 21 13 41 26 41 11 0 12 -4 4 -19z m219
-74 c-1 -12 3 -51 10 -87 13 -80 14 -97 2 -84 -25 26 -52 180 -35 197 12 11
24 -3 23 -26z m-832 -7 c18 -16 38 -30 43 -30 6 0 10 -7 10 -15 0 -8 -5 -15
-11 -15 -29 0 -99 54 -99 77 0 21 20 15 57 -17z m533 -75 c-12 -52 -36 -105
-49 -105 -4 0 -15 8 -24 18 -16 17 -15 22 14 68 29 47 58 78 66 70 2 -2 -1
-25 -7 -51z m3220 27 c0 -5 -9 -17 -20 -27 -22 -20 -26 -14 -10 16 11 19 30
26 30 11z m-2522 -20 c3 -9 -2 -13 -14 -10 -9 1 -19 9 -22 16 -3 9 2 13 14 10
9 -1 19 -9 22 -16z m1066 -16 c20 -18 36 -42 36 -53 0 -34 -38 -71 -91 -88
-93 -31 -165 -4 -190 72 -14 43 -7 50 34 35 19 -7 45 -12 60 -12 15 0 36 -9
48 -21 24 -24 27 -23 35 19 6 28 4 31 -27 39 -42 11 -48 30 -12 36 61 9 72 6
107 -27z m-1014 -46 c10 0 21 -3 23 -7 11 -21 15 -60 7 -73 -8 -13 -13 -12
-31 7 -12 12 -28 38 -34 57 -13 37 -8 58 7 31 5 -8 18 -15 28 -15z m2450 17
c0 -17 -38 -52 -47 -44 -10 11 15 57 32 57 8 0 15 -6 15 -13z m-3100 -38 c61
-132 80 -182 80 -214 0 -14 -4 -25 -9 -25 -15 0 -41 42 -41 65 0 11 -8 25 -19
32 -31 19 -58 170 -29 161 6 -2 15 -11 18 -19z m87 9 c10 -13 27 -118 20 -118
-7 0 -57 105 -57 118 0 16 25 15 37 0z m-620 -25 c10 -16 22 -31 27 -35 6 -4
8 -10 4 -13 -7 -8 -78 53 -78 67 0 19 31 6 47 -19z m842 -27 c6 -22 8 -42 6
-45 -11 -11 -27 19 -32 60 -7 54 10 43 26 -15z m-382 -20 c4 -45 -7 -61 -23
-34 -14 22 -1 99 13 84 3 -2 7 -25 10 -50z m-1353 -1 c35 -35 40 -58 17 -79
-17 -15 -20 -15 -34 -1 -9 8 -23 15 -33 15 -13 0 -15 6 -10 31 3 17 6 38 6 45
0 22 27 16 54 -11z m4399 -21 c13 -13 -29 -67 -83 -109 -30 -23 -64 -52 -74
-64 -19 -21 -46 -28 -46 -12 0 16 89 119 108 125 10 4 28 20 40 36 22 29 41
37 55 24z m-2713 -85 c0 -49 -16 -50 -36 -3 -12 28 -12 39 -3 50 18 22 39 -2
39 -47z m78 37 c3 -12 -1 -17 -10 -14 -7 3 -15 13 -16 22 -3 12 1 17 10 14 7
-3 15 -13 16 -22z m2125 -115 c-2 -52 -21 -111 -35 -111 -9 0 -6 60 8 133 9
43 29 26 27 -22z m-3937 25 c8 -21 -15 -58 -33 -54 -25 5 -28 28 -3 28 17 0
20 4 15 20 -7 23 12 28 21 6z m140 -11 c4 -8 12 -15 19 -15 20 0 27 -48 13
-81 -14 -31 -45 -39 -54 -14 -4 8 -1 22 6 30 7 8 10 21 7 29 -3 8 -1 17 6 19
7 2 -3 7 -20 11 -36 8 -43 22 -15 29 30 8 32 7 38 -8z m2109 5 c3 -5 -1 -10
-9 -10 -8 0 -18 5 -21 10 -3 6 1 10 9 10 8 0 18 -4 21 -10z m1621 -87 c-4 -32
-9 -74 -11 -93 -3 -19 -20 -57 -39 -85 -18 -27 -41 -65 -50 -83 -9 -17 -20
-32 -25 -32 -11 0 -2 92 10 105 5 5 9 20 9 35 1 14 14 41 30 60 21 24 30 45
30 70 0 37 23 80 42 80 7 0 9 -19 4 -57z m-2688 35 c20 -20 14 -38 -13 -38
-14 0 -25 4 -25 9 0 5 -3 16 -6 25 -7 19 26 22 44 4z m1799 -14 c-9 -9 -28 6
-21 18 4 6 10 6 17 -1 6 -6 8 -13 4 -17z m-2877 6 c0 -5 -6 -10 -14 -10 -8 0
-18 5 -21 10 -3 6 3 10 14 10 12 0 21 -4 21 -10z m2213 -25 c-10 -7 -20 -12
-21 -10 -7 7 23 33 31 28 5 -3 0 -11 -10 -18z m-2275 2 c7 -8 7 -18 1 -27 -8
-13 -10 -13 -19 0 -21 32 -5 55 18 27z m4276 5 c3 -5 -13 -26 -34 -47 -22 -22
-40 -44 -40 -51 0 -17 -37 -60 -45 -52 -17 17 10 75 54 115 48 44 56 49 65 35z
m-2554 -46 c-1 -21 -1 -21 -15 -2 -21 27 -20 53 0 36 8 -7 15 -22 15 -34z
m-1829 9 c-1 -15 -24 -12 -29 3 -3 9 2 13 12 10 10 -1 17 -7 17 -13z m59 -5
c0 -5 -7 -10 -15 -10 -8 0 -15 5 -15 10 0 6 7 10 15 10 8 0 15 -4 15 -10z
m150 -46 c0 -8 -9 -14 -20 -14 -19 0 -27 19 -14 33 10 9 34 -4 34 -19z m1580
-47 c0 -6 -9 -2 -20 8 -11 10 -20 23 -20 28 0 6 9 2 20 -8 11 -10 20 -23 20
-28z m-360 -18 c0 -11 -4 -17 -10 -14 -5 3 -10 15 -10 26 0 11 5 17 10 14 6
-3 10 -15 10 -26z m44 -7 c-4 -12 -10 -22 -15 -22 -11 0 -12 44 -2 54 12 11
23 -9 17 -32z m-23 -104 c11 -22 18 -46 15 -54 -3 -7 -1 -16 4 -19 16 -10 11
-45 -5 -45 -10 0 -15 10 -15 33 0 21 -7 36 -20 45 -22 13 -27 52 -7 52 6 0 0
10 -15 21 -35 26 -37 45 -2 23 14 -10 34 -35 45 -56z m-1123 28 c2 -2 -1 -14
-7 -25 -12 -22 -41 -18 -41 6 0 9 -6 13 -15 10 -18 -7 -30 9 -13 17 13 5 68
-1 76 -8z m42 -58 c0 -19 -2 -20 -10 -8 -13 19 -13 30 0 30 6 0 10 -10 10 -22z
m-202 -44 c2 -16 10 -36 17 -44 7 -8 15 -24 17 -35 2 -11 10 -20 18 -20 8 0
21 -4 28 -8 14 -9 52 -84 52 -104 0 -20 -17 -16 -34 9 -18 25 -32 18 -21 -9
16 -37 12 -51 -14 -56 -33 -7 -38 -1 -23 23 17 28 15 40 -7 40 -11 0 -23 9
-26 20 -4 11 -20 27 -36 35 -34 18 -35 25 -10 56 14 17 16 27 8 39 -13 22 0
93 16 87 7 -2 14 -17 15 -33z m1664 -31 c21 -19 24 -43 5 -43 -19 0 -37 21
-37 42 0 22 8 23 32 1z m376 -57 c3 -12 -1 -17 -10 -14 -7 3 -15 13 -16 22 -3
12 1 17 10 14 7 -3 15 -13 16 -22z m1522 -10 c0 -16 -28 -42 -36 -33 -8 7 14
47 26 47 6 0 10 -6 10 -14z m-242 -88 c22 -34 20 -56 -2 -26 -11 15 -14 13
-31 -19 -19 -35 -19 -35 0 -49 35 -24 46 -35 40 -43 -2 -5 4 -11 15 -14 27 -7
25 -32 -6 -92 -39 -74 -109 -142 -166 -161 -27 -9 -56 -13 -64 -10 -9 4 -29
-5 -46 -19 -17 -14 -38 -25 -46 -23 -21 4 -27 28 -7 28 9 0 15 6 13 13 -8 22
-39 19 -59 -7 -16 -20 -29 -26 -60 -26 -38 0 -39 1 -39 35 0 34 -3 37 -74 71
-48 23 -77 44 -85 60 -15 34 -14 44 4 38 8 -4 15 -12 15 -20 0 -23 52 -16 125
17 57 25 79 30 129 28 100 -4 210 1 225 10 12 8 12 14 1 40 -10 25 -10 34 0
46 7 8 15 13 19 11 4 -3 13 -1 21 4 12 7 12 12 -3 28 -18 20 -23 62 -7 62 5 0
12 11 16 25 9 37 47 33 72 -7z m670 -153 c-7 -100 -15 -150 -21 -140 -13 23
-10 238 4 285 23 77 30 18 17 -145z m-2708 104 c0 -5 -7 -9 -15 -9 -9 0 -15 9
-15 21 0 18 2 19 15 9 8 -7 15 -16 15 -21z m1850 -15 c0 -22 -3 -25 -22 -20
-13 3 -31 6 -41 6 -26 0 -16 23 14 31 42 12 49 10 49 -17z m70 6 c0 -10 -9
-24 -20 -30 -17 -9 -20 -8 -20 14 0 22 10 33 33 35 4 1 7 -8 7 -19z m-1529
-46 c0 -79 -3 -114 -12 -114 -15 0 -37 43 -44 88 -6 38 -5 42 14 42 15 0 21 6
21 22 0 15 3 19 10 12 6 -6 10 -28 11 -50z m-1501 36 c0 -12 -28 -25 -36 -17
-9 9 6 27 22 27 8 0 14 -5 14 -10z m2588 -37 c-2 -10 -23 -25 -50 -35 l-47
-17 21 34 c16 28 26 35 50 35 22 0 29 -4 26 -17z m-2582 -3 c21 0 33 -4 29
-10 -8 -13 -115 -13 -115 -1 0 12 21 21 38 15 8 -2 29 -4 48 -4z m3202 -13 c2
-12 -1 -15 -12 -11 -19 7 -22 38 -3 32 6 -3 13 -12 15 -21z m-3168 -49 c0 -16
-20 -7 -30 12 -10 19 -10 20 9 8 12 -7 21 -16 21 -20z m3685 12 c3 -6 3 -31
-1 -58 -4 -26 -9 -41 -12 -34 -2 7 -15 17 -28 22 -27 11 -33 40 -8 40 8 0 12
5 9 10 -3 6 -3 15 0 20 8 13 32 13 40 0z m-1145 -50 c7 -13 6 -19 -4 -23 -17
-7 -36 12 -36 35 0 21 26 14 40 -12z m-2312 -6 c19 -13 32 -64 16 -64 -10 0
-64 58 -64 69 0 16 22 13 48 -5z m2200 -6 c-3 -7 -13 -15 -24 -17 -16 -3 -17
-1 -5 13 16 19 34 21 29 4z m-974 -33 c3 -9 3 -36 -1 -60 -8 -62 -32 -43 -28
23 4 56 3 52 14 52 5 0 11 -7 15 -15z m-1272 -104 c9 -11 18 -27 20 -37 2 -10
21 -24 49 -33 26 -9 53 -21 60 -28 8 -6 27 -13 43 -15 16 -1 31 -9 34 -16 2
-7 -2 -10 -12 -6 -21 8 -21 -31 0 -71 15 -29 15 -31 -15 -57 -17 -16 -38 -28
-46 -28 -9 0 -38 21 -66 48 -41 38 -49 52 -45 72 4 20 -2 30 -24 45 -31 21
-49 82 -35 124 8 26 16 26 37 2z m1466 -53 c44 -51 62 -82 62 -105 0 -13 -2
-23 -5 -23 -21 0 -105 53 -110 70 -5 17 13 90 23 90 2 0 15 -14 30 -32z m982
-27 c0 -14 -18 -23 -30 -16 -6 4 -8 11 -5 16 8 12 35 12 35 0z m-2000 -45 c0
-7 -7 -19 -15 -26 -12 -10 -15 -9 -15 7 0 11 3 23 7 26 11 12 23 8 23 -7z
m400 -36 c0 -5 -7 -10 -15 -10 -8 0 -15 5 -15 10 0 6 7 10 15 10 8 0 15 -4 15
-10z m580 -25 c0 -14 -4 -25 -10 -25 -5 0 -10 11 -10 25 0 14 5 25 10 25 6 0
10 -11 10 -25z m100 -29 c0 -7 -11 -16 -25 -18 -24 -5 -34 10 -18 25 12 12 43
7 43 -7z m-585 -45 c-3 -11 0 -21 8 -24 9 -3 13 -19 12 -44 -3 -54 -3 -53 -29
-53 -35 0 -42 18 -16 42 l21 20 -22 24 c-12 13 -21 25 -18 26 53 33 52 33 44
9z m697 2 c10 -9 18 -28 18 -43 0 -30 -36 -83 -51 -75 -10 7 -12 95 -3 119 8
20 13 20 36 -1z m188 -13 c0 -11 -7 -20 -15 -20 -13 0 -14 4 -5 20 6 11 13 20
15 20 3 0 5 -9 5 -20z m-294 -37 c3 -16 12 -50 20 -77 15 -47 14 -50 -5 -69
-20 -21 -21 -21 -42 -1 l-22 19 5 -37 c2 -21 2 -38 0 -38 -2 0 -23 14 -48 30
-61 43 -59 65 14 139 31 32 60 59 64 60 4 0 10 -11 14 -26z m1944 12 c0 -8 -4
-15 -10 -15 -5 0 -10 7 -10 15 0 8 5 15 10 15 6 0 10 -7 10 -15z m-1680 -11
c0 -3 -6 -18 -14 -32 -8 -15 -17 -38 -20 -52 -10 -43 -129 -205 -151 -205 -33
0 -29 38 7 82 18 22 61 79 96 127 55 75 82 101 82 80z m-1376 -24 c12 -12 -2
-30 -25 -30 -19 0 -25 -11 -12 -23 3 -4 12 -2 18 3 9 8 14 6 19 -5 4 -12 -2
-15 -29 -15 -27 0 -35 4 -35 18 0 9 -7 26 -15 36 -8 11 -15 24 -15 29 0 10 81
-1 94 -13z m2751 -161 c-9 -27 -14 -53 -10 -59 3 -5 -1 -10 -9 -10 -13 0 -16
13 -16 64 0 36 5 68 10 71 6 3 10 18 10 33 0 15 3 38 7 52 6 20 9 11 16 -39 6
-49 4 -75 -8 -112z m-108 104 c13 -10 13 -14 -1 -34 -15 -21 -16 -22 -21 -3
-4 10 -10 26 -14 34 -5 8 -4 26 2 40 l10 25 4 -25 c3 -14 11 -30 20 -37z m407
42 c7 -20 -4 -75 -15 -75 -5 0 -9 20 -9 45 0 44 12 60 24 30z m-1584 -63 c0
-67 -67 -213 -105 -230 -33 -15 -33 -49 0 -62 26 -10 33 -34 13 -46 -6 -4 -17
1 -24 10 -7 10 -15 13 -18 8 -3 -6 -15 -8 -26 -5 -30 8 -24 -4 10 -22 17 -9
36 -13 42 -9 7 4 8 3 4 -4 -4 -7 -14 -12 -22 -12 -8 0 -14 -9 -14 -19 0 -11
-4 -23 -10 -26 -5 -3 -10 -15 -10 -26 0 -22 -4 -23 -31 -9 -32 18 -21 -6 21
-44 25 -22 40 -45 40 -59 0 -29 -89 -567 -95 -578 -3 -4 -1 -18 4 -31 6 -16 1
-58 -14 -133 -32 -153 -50 -194 -93 -212 -20 -8 -38 -11 -44 -5 -4 4 -13 35
-18 67 -9 53 -6 74 31 218 24 98 36 164 30 170 -21 21 -46 1 -65 -51 -32 -89
-35 -79 -57 180 -9 101 -9 141 -1 151 8 9 8 24 2 48 -5 19 -9 50 -9 69 0 19
-3 79 -6 134 l-6 98 28 -7 c15 -3 35 -12 43 -19 27 -22 79 -5 103 35 55 89 70
109 84 109 12 0 13 3 4 14 -21 25 -1 58 184 312 16 22 25 16 25 -14z m-880
-26 c0 -8 -4 -18 -10 -21 -5 -3 -10 3 -10 14 0 12 5 21 10 21 6 0 10 -6 10
-14z m948 -3 c6 -10 6 -27 0 -45 -18 -50 -39 -29 -31 30 6 35 17 41 31 15z
m-1589 -44 c11 -12 40 -24 72 -29 59 -9 166 -40 187 -53 20 -13 14 -41 -13
-54 -14 -6 -25 -7 -25 -2 0 5 5 9 11 9 5 0 7 5 4 11 -5 7 -15 3 -30 -11 -19
-18 -23 -19 -28 -6 -7 18 -38 21 -53 6 -11 -11 -106 24 -112 41 -2 5 -15 25
-28 45 -14 20 -23 43 -20 50 7 19 12 18 35 -7z m2016 -59 c6 -10 -5 -17 -39
-22 -28 -4 -31 20 -4 25 13 2 26 5 30 6 4 0 10 -4 13 -9z m-100 -27 c-10 -44
-22 -48 -39 -15 -21 41 -21 42 15 42 29 0 31 -2 24 -27z m1252 -50 c-2 -16 -4
-3 -4 27 0 30 2 43 4 28 2 -16 2 -40 0 -55z m-2857 32 c0 -8 -4 -15 -10 -15
-5 0 -10 7 -10 15 0 8 5 15 10 15 6 0 10 -7 10 -15z m2485 -25 c8 -38 -2 -70
-22 -70 -12 0 -14 8 -9 38 3 20 6 43 6 50 0 24 19 11 25 -18z m-1254 -17 c-10
-17 -10 -16 -11 3 0 23 13 41 18 25 2 -6 -1 -18 -7 -28z m325 -39 c13 -35 15
-50 6 -63 -17 -24 -62 -121 -68 -148 -4 -13 -10 -23 -15 -23 -16 0 -23 32 -11
51 15 23 15 49 2 49 -5 0 -10 4 -10 10 0 5 7 7 17 3 13 -5 15 -2 9 18 -10 32
-8 73 4 77 5 2 12 19 16 38 9 47 29 43 50 -12z m-668 9 c-2 -22 -9 -29 -30
-31 -34 -4 -35 4 -6 35 28 30 40 29 36 -4z m810 15 c-7 -19 -43 -21 -58 -3
-11 13 -8 15 25 15 25 0 35 -4 33 -12z m-297 -105 c-10 -17 -10 -16 -11 3 0
23 13 41 18 25 2 -6 -1 -18 -7 -28z m-851 -19 c0 -29 -3 -34 -24 -34 -15 0
-26 -7 -29 -20 -3 -11 -10 -20 -16 -20 -14 0 -14 37 -1 45 6 4 17 22 25 41 18
44 45 37 45 -12z m345 16 c8 -14 -26 -70 -43 -70 -23 0 -72 30 -72 44 0 26
101 49 115 26z m1585 -15 c0 -8 -4 -15 -10 -15 -5 0 -10 7 -10 15 0 8 5 15 10
15 6 0 10 -7 10 -15z m-2200 -5 c0 -5 -7 -10 -15 -10 -8 0 -15 5 -15 10 0 6 7
10 15 10 8 0 15 -4 15 -10z m1105 -72 c-4 -35 -13 -70 -21 -78 -12 -12 -14
-12 -14 3 0 22 32 137 38 137 2 0 1 -28 -3 -62z m185 41 c0 -44 -58 -276 -80
-319 -12 -24 -15 -43 -10 -62 13 -44 -13 -158 -41 -179 -31 -23 -34 -13 -15
60 9 34 13 68 9 77 -4 11 1 22 12 30 13 10 16 17 9 24 -20 20 12 163 68 308
31 80 48 102 48 61z m-878 -14 c0 -5 -5 -11 -11 -13 -6 -2 -11 4 -11 13 0 9 5
15 11 13 6 -2 11 -8 11 -13z m933 -15 c24 0 34 -32 21 -70 -13 -41 -53 -59
-42 -19 3 13 9 35 12 49 4 21 4 23 -6 7 -16 -25 -31 -11 -24 21 9 38 18 50 22
30 2 -10 10 -18 17 -18z m-1455 0 c0 -5 10 -10 22 -10 21 0 21 -1 6 -17 -14
-13 -20 -14 -32 -3 -18 14 -21 40 -6 40 6 0 10 -4 10 -10z m986 -22 c-3 -13
-6 -29 -6 -35 0 -7 -4 -13 -8 -13 -4 0 -6 16 -4 35 2 19 9 35 14 35 6 0 8 -10
4 -22z m683 -123 c-15 -49 -23 -64 -30 -54 -15 24 -10 65 11 84 11 10 17 22
14 26 -8 14 7 32 17 22 6 -6 1 -37 -12 -78z m-374 45 c-5 -8 -11 -8 -17 -2 -6
6 -7 16 -3 22 5 8 11 8 17 2 6 -6 7 -16 3 -22z m-1198 -46 c-9 -9 -28 6 -21
18 4 6 10 6 17 -1 6 -6 8 -13 4 -17z m862 -27 c-5 -17 -14 -52 -20 -76 -5 -23
-12 -41 -15 -38 -5 5 14 136 22 149 12 20 21 -5 13 -35z m479 -5 c-3 -14 -6
-14 -16 6 -7 12 -10 27 -6 33 9 15 27 -16 22 -39z m-262 1 c-11 -11 -17 4 -9
23 7 18 8 18 11 1 2 -10 1 -21 -2 -24z m-646 2 c0 -8 -4 -17 -10 -20 -6 -4
-10 5 -10 20 0 15 4 24 10 20 6 -3 10 -12 10 -20z m1710 -26 c0 -17 -4 -28
-10 -24 -5 3 -10 17 -10 31 0 13 5 24 10 24 6 0 10 -14 10 -31z m-630 -41 c26
-44 25 -84 -5 -165 -63 -167 -95 -228 -120 -228 -17 0 -20 6 -18 43 1 24 13
78 27 120 13 43 30 102 37 132 15 70 38 130 50 130 5 0 18 -15 29 -32z m-109
-47 c-6 -11 -11 -28 -11 -39 0 -31 -30 -122 -40 -122 -18 0 -10 65 14 110 13
25 27 59 31 75 6 20 9 25 12 13 2 -9 -1 -26 -6 -37z m-1197 7 c3 -7 7 -41 10
-75 5 -50 3 -63 -8 -63 -15 0 -20 17 -31 103 -5 39 -4 47 10 47 8 0 17 -6 19
-12z m742 -161 c-8 -61 -18 -139 -21 -172 -7 -71 -24 -145 -38 -163 -7 -9 -13
-9 -23 -1 -15 12 -10 54 11 109 13 31 41 171 60 300 4 25 10 49 13 55 13 22
13 -23 -2 -128z m-502 76 c2 -10 8 -54 11 -98 3 -44 13 -147 21 -229 8 -82 13
-155 10 -162 -12 -32 -24 -9 -30 59 -4 39 -13 128 -21 197 -27 242 -27 250
-11 250 8 0 17 -8 20 -17z m1684 -87 c-1 -61 -16 -118 -19 -71 -3 48 8 135 16
135 3 0 4 -29 3 -64z m-878 21 c0 -26 -29 -131 -35 -125 -7 7 19 148 27 148 4
0 8 -10 8 -23z m-450 -187 c-7 -28 -16 -50 -21 -50 -11 0 -11 6 2 55 16 62 21
72 26 57 3 -7 -1 -35 -7 -62z m1317 13 c-3 -10 -5 -2 -5 17 0 19 2 27 5 18 2
-10 2 -26 0 -35z m-1136 -80 c-12 -8 -21 -20 -21 -28 0 -22 -20 -68 -26 -62
-11 11 19 106 35 110 27 6 33 -4 12 -20z m69 -94 c0 -32 -16 -35 -34 -7 -7 12
-6 21 3 32 18 22 31 11 31 -25z m400 -9 c11 -11 20 -27 20 -35 0 -14 -3 -14
-30 0 -18 9 -30 23 -30 35 0 25 15 25 40 0z m-600 -140 c0 -34 6 -37 31 -14
13 11 39 17 86 18 66 1 68 0 71 -24 3 -23 -6 -30 -81 -69 -46 -24 -92 -41
-103 -39 -18 3 -41 68 -24 68 4 0 5 20 2 45 -3 30 -1 45 7 45 6 0 11 -13 11
-30z m1600 -87 c0 -8 -7 -13 -17 -11 -13 2 -19 14 -21 38 l-2 35 20 -24 c11
-13 20 -30 20 -38z m-1260 -109 c0 -31 -72 -270 -94 -312 -8 -16 -36 -93 -61
-173 -26 -79 -53 -157 -60 -174 -7 -16 -21 -54 -30 -83 -34 -106 -33 -34 1
128 50 240 50 238 81 242 31 4 33 8 63 173 34 182 46 215 75 215 16 0 25 -6
25 -16z m1250 -9 c0 -14 -4 -25 -10 -25 -11 0 -14 33 -3 43 11 11 13 8 13 -18z
m-1554 -16 c8 -14 -6 -28 -34 -34 -29 -5 -40 15 -17 32 23 16 41 17 51 2z
m-878 -44 c49 -16 70 -31 60 -41 -14 -14 -188 38 -188 56 0 21 29 18 128 -15z
m972 -37 c0 -40 -8 -53 -36 -62 -18 -5 -20 -2 -19 36 1 31 6 43 21 49 31 12
34 11 34 -23z m1445 -25 c-6 -15 -9 -14 -16 11 -4 16 -5 34 -2 40 10 16 26
-31 18 -51z m-15 -104 c-9 -16 -14 -18 -26 -8 -21 17 -17 29 11 29 23 0 24 -2
15 -21z m-1580 -4 c0 -9 -6 -12 -15 -9 -8 4 -15 10 -15 15 0 5 7 9 15 9 8 0
15 -7 15 -15z m-886 -13 c7 -11 -42 -112 -55 -112 -12 0 -6 33 16 87 13 32 28
42 39 25z m877 -31 c29 -29 39 -61 19 -61 -5 0 -10 5 -10 11 0 7 -13 24 -29
40 -16 15 -27 30 -23 33 9 9 12 8 43 -23z m-776 -18 c-4 -10 -23 -60 -41 -111
-37 -107 -44 -118 -44 -74 0 57 22 137 47 170 26 34 50 44 38 15z m865 -28 c0
-16 -34 -38 -44 -28 -7 7 23 43 36 43 4 0 8 -7 8 -15z m-783 -33 c-13 -14 -14
-21 -5 -30 14 -14 -5 -81 -53 -196 -34 -79 -37 -109 -11 -104 9 2 29 28 45 61
15 31 34 57 42 57 18 0 36 -56 40 -126 2 -30 9 -62 16 -70 6 -8 14 -38 17 -67
2 -29 12 -61 21 -72 35 -40 47 -125 18 -125 -5 0 -26 -12 -45 -27 -20 -16 -45
-33 -55 -39 -19 -10 -18 -12 8 -18 27 -7 59 9 50 24 -3 5 3 11 14 15 11 3 22
13 25 21 3 8 10 12 16 9 15 -9 12 -25 -4 -25 -19 0 -29 -30 -15 -46 7 -8 20
-12 30 -9 11 4 19 2 19 -5 0 -6 -13 -13 -30 -16 -32 -7 -31 -24 2 -24 16 0 19
-5 14 -22 -3 -13 -6 -33 -6 -45 0 -22 -3 -23 -85 -21 -47 1 -85 4 -85 8 0 3 9
13 20 23 36 30 25 40 -36 32 -55 -7 -56 -6 -49 17 11 38 46 83 77 101 40 23
46 46 19 68 -20 17 -21 21 -11 61 7 24 16 50 20 59 4 9 11 41 15 71 6 51 5 57
-14 68 -43 23 -62 9 -93 -65 -22 -54 -28 -81 -24 -116 5 -53 -14 -93 -34 -72
-29 27 -21 279 12 428 20 91 108 259 126 241 3 -3 -2 -14 -11 -24z m2266 -12
c-5 -20 -15 -25 -26 -14 -9 9 12 46 23 39 4 -3 6 -14 3 -25z m-1503 -56 c0 -8
-7 -14 -15 -14 -15 0 -21 21 -9 33 10 9 24 -2 24 -19z m-20 -65 c-6 -10 -17
-19 -25 -19 -19 0 -19 9 1 31 21 23 38 14 24 -12z m1509 -68 c1 -34 -6 -51
-30 -83 -27 -33 -36 -38 -58 -33 -14 4 -29 12 -33 18 -6 11 33 67 79 113 13
13 23 33 24 46 1 42 18 -12 18 -61z m-2500 -101 c-29 -56 -49 -69 -49 -34 0 9
17 50 37 92 l37 77 4 -37 c2 -28 -5 -54 -29 -98z m976 109 c9 -13 -14 -97 -28
-106 -7 -4 -8 7 -4 32 4 22 2 44 -4 51 -6 7 -8 18 -4 24 8 13 32 13 40 -1z
m-75 -24 c16 -19 0 -19 -26 0 -16 12 -16 14 -3 15 9 0 22 -7 29 -15z m1438
-156 c-2 -6 -8 -10 -13 -10 -5 0 -11 4 -13 10 -2 6 4 11 13 11 9 0 15 -5 13
-11z m-48 -29 c0 -11 -7 -20 -15 -20 -8 0 -15 9 -15 20 0 11 7 20 15 20 8 0
15 -9 15 -20z m-1298 -52 c-7 -24 -18 -79 -27 -123 -26 -142 -98 -372 -124
-398 -22 -22 -8 52 44 238 13 44 28 103 34 130 28 119 62 218 73 207 8 -8 8
-23 0 -54z m-982 -13 c0 -67 -14 -87 -25 -36 -7 34 3 101 16 101 5 0 9 -29 9
-65z m2400 55 c0 -12 -28 -25 -36 -17 -9 9 6 27 22 27 8 0 14 -5 14 -10z
m-2467 -130 c5 -52 11 -71 58 -178 34 -76 16 -120 -28 -66 -51 63 -73 124 -73
200 0 131 31 163 43 44z m2341 64 c28 -11 17 -25 -41 -51 -65 -28 -160 -41
-189 -25 -22 12 -30 9 91 42 44 12 87 26 95 31 18 10 24 11 44 3z m-40 -104
c-5 -5 -25 -12 -44 -15 l-35 -5 30 14 c35 18 64 21 49 6z m-1738 -95 c-8 -28
-19 -66 -26 -85 -7 -19 -15 -41 -17 -49 -2 -8 -6 -12 -8 -9 -5 5 16 107 35
172 7 23 15 35 21 29 5 -5 3 -28 -5 -58z m294 0 c0 -8 -7 -15 -15 -15 -8 0
-15 7 -15 15 0 8 7 15 15 15 8 0 15 -7 15 -15z m-27 -90 c1 -5 -6 -11 -15 -13
-11 -2 -18 3 -18 13 0 17 30 18 33 0z m198 -97 c-12 -40 -35 -116 -51 -168
-16 -52 -41 -134 -56 -182 -14 -49 -30 -88 -35 -88 -15 0 -6 48 22 115 9 21
41 125 85 270 35 117 43 139 51 132 3 -4 -4 -39 -16 -79z m-1131 -24 c22 -5
28 -9 18 -15 -18 -12 -74 -9 -133 6 l-50 13 66 1 c37 0 81 -2 99 -5z m517
-200 c-8 -46 -14 -52 -34 -31 -15 14 -15 20 -3 42 21 40 44 33 37 -11z m105
-29 c-9 -25 -20 -45 -24 -45 -12 0 -10 15 8 60 22 55 37 41 16 -15z m-258 22
c15 -11 17 -17 7 -35 -14 -26 -19 -27 -43 -5 -40 36 -8 72 36 40z m430 -33
c18 -17 21 -44 6 -44 -5 0 -10 7 -10 16 0 9 -9 18 -20 21 -11 3 -20 9 -20 14
0 15 27 10 44 -7z m-354 -85 c0 -15 -4 -19 -16 -15 -9 3 -18 6 -20 6 -2 0 -4
7 -4 15 0 8 9 15 20 15 14 0 20 -7 20 -21z m349 -164 c3 -17 2 -17 -13 -3 -19
20 -21 31 -3 26 6 -3 14 -13 16 -23z m-284 -59 c-9 -21 -19 -35 -22 -32 -3 3
2 24 13 47 22 51 31 37 9 -15z m46 -9 c-12 -30 -21 -58 -20 -63 1 -5 0 -16 -3
-24 -3 -8 -11 -34 -18 -58 -8 -23 -19 -47 -27 -53 -7 -6 -13 -20 -13 -29 0
-10 -6 -31 -14 -47 -17 -34 -32 -80 -52 -151 -8 -30 -19 -62 -24 -73 -13 -22
-55 -27 -47 -5 3 8 11 34 17 58 32 122 67 212 136 353 74 152 109 201 65 92z
m179 -21 c0 -5 -7 -3 -15 4 -8 7 -12 17 -9 22 7 10 24 -9 24 -26z m-170 -201
c-6 -15 -13 -25 -17 -22 -3 4 0 21 8 38 16 39 24 24 9 -16z m150 -50 c0 -8 -4
-17 -10 -20 -6 -4 -10 5 -10 20 0 15 4 24 10 20 6 -3 10 -12 10 -20z m-195
-84 c-15 -31 -28 -42 -20 -18 19 52 28 70 32 60 2 -6 -3 -25 -12 -42z m420
-219 c0 -161 -1 -167 -20 -164 -11 2 -44 6 -73 9 -52 5 -54 7 -48 32 18 77 19
101 2 101 -32 0 -13 68 23 82 5 1 28 32 51 67 31 46 45 60 53 52 7 -7 11 -70
12 -179z m-261 135 c8 -12 1 -46 -26 -134 -20 -65 -41 -136 -46 -158 -17 -67
-124 -355 -132 -355 -10 0 -23 68 -15 80 3 5 11 38 16 72 11 68 23 114 46 168
8 18 17 52 19 75 3 22 18 67 34 100 16 33 32 81 36 105 10 63 44 86 68 47z
m-199 -37 c-4 -12 -9 -19 -12 -17 -3 3 -2 15 2 27 4 12 9 19 12 17 3 -3 2 -15
-2 -27z m-77 -252 l-13 -23 -3 22 c-2 12 3 32 10 45 l13 23 3 -22 c2 -12 -3
-32 -10 -45z m-110 -5 c-7 -46 -85 -252 -104 -273 -12 -12 -14 -11 -14 8 0 32
68 223 84 236 7 6 16 23 20 39 9 40 19 33 14 -10z m450 -45 c-4 -41 -28 -50
-28 -10 0 16 3 32 7 35 15 16 24 5 21 -25z m25 -151 c-8 -12 -33 20 -33 42 1
12 6 10 20 -8 11 -12 17 -28 13 -34z m-68 -73 c15 -15 15 -18 -2 -36 -48 -53
-83 -44 -58 15 17 40 34 46 60 21z m-425 -279 c17 -20 -3 -45 -35 -45 -13 0
-26 -6 -28 -12 -3 -7 -6 1 -6 19 -1 17 4 35 9 38 6 3 10 -3 10 -14 0 -14 5
-19 15 -15 10 4 13 13 10 25 -8 23 8 25 25 4z m-300 -32 c0 -23 -30 -74 -40
-68 -14 9 -12 79 2 93 14 14 38 -2 38 -25z m175 -52 c-4 -20 -11 -42 -17 -48
-6 -7 -8 -13 -4 -13 3 0 -5 -30 -18 -67 -14 -38 -41 -122 -61 -188 -35 -114
-56 -157 -71 -142 -6 6 14 94 36 157 4 14 20 68 35 120 24 83 55 185 70 229 4
11 8 11 21 0 11 -9 14 -22 9 -48z m-293 -65 c-3 -47 0 -65 12 -75 26 -22 18
-96 -22 -216 l-37 -110 -59 -28 c-33 -16 -78 -29 -100 -30 -36 -2 -41 1 -39
18 13 121 47 313 59 337 30 58 168 188 183 173 3 -4 4 -35 3 -69z m438 50 c0
-13 -9 -35 -20 -49 -11 -14 -20 -31 -21 -39 0 -7 -5 -3 -11 10 -9 18 -8 25 7
36 12 8 16 19 12 30 -9 22 -1 36 19 36 8 0 14 -10 14 -24z m-160 -231 c-7 -20
-9 -47 -6 -59 4 -17 1 -26 -10 -30 -9 -3 -14 -12 -11 -19 5 -14 -31 -43 -40
-33 -7 6 45 155 59 174 17 21 21 6 8 -33z m-182 -132 c-5 -21 -16 -51 -23 -68
-7 -16 -25 -70 -40 -120 -26 -87 -39 -114 -50 -104 -4 5 54 188 95 297 17 44
31 40 18 -5z m372 -75 c-30 -121 -83 -275 -88 -260 -5 16 28 143 71 271 37
112 47 105 17 -11z m-340 -40 c0 -16 -3 -19 -11 -11 -6 6 -8 16 -5 22 11 17
16 13 16 -11z m-200 -55 c-1 -19 -18 -33 -33 -27 -26 10 -20 34 8 34 14 0 25
-3 25 -7z m150 -113 c0 -5 -7 -10 -15 -10 -8 0 -15 5 -15 10 0 6 7 10 15 10 8
0 15 -4 15 -10z m-25 -80 c8 -26 -6 -52 -23 -41 -9 5 -11 17 -6 34 7 32 20 35
29 7z m68 -35 c0 -6 -7 -11 -16 -13 -12 -3 -15 1 -11 13 7 17 25 17 27 0z
m-103 -87 c0 -24 -11 -76 -25 -116 -14 -41 -25 -82 -25 -92 0 -22 -91 -320
-126 -415 -14 -38 -35 -97 -46 -130 -24 -71 -33 -82 -76 -95 -27 -7 -34 -6
-39 7 -6 17 45 182 83 268 12 28 32 86 44 130 12 44 33 103 46 132 13 28 24
55 24 59 0 4 9 25 19 48 11 23 29 68 41 101 28 76 62 145 72 145 5 0 8 -19 8
-42z m50 -92 c0 -16 -18 -31 -27 -22 -8 8 5 36 17 36 5 0 10 -6 10 -14z m-40
-131 c0 -8 -4 -15 -10 -15 -5 0 -10 7 -10 15 0 8 5 15 10 15 6 0 10 -7 10 -15z
m-2 -68 c3 -22 -1 -27 -18 -27 -16 0 -20 4 -16 16 3 9 6 22 6 31 0 25 25 8 28
-20z m-4 -43 c23 -9 20 -24 -4 -24 -11 0 -20 -7 -20 -15 0 -8 -7 -15 -15 -15
-18 0 -20 31 -3 48 14 14 20 14 42 6z m339 -81 c45 -77 71 -132 64 -139 -2 -2
-24 -1 -48 2 l-45 6 -19 62 c-10 33 -20 80 -23 104 -7 66 17 53 71 -35z m-380
-25 c2 -13 8 -31 12 -40 6 -14 2 -18 -16 -18 -20 0 -30 -12 -56 -72 -18 -39
-35 -69 -38 -66 -9 8 68 218 81 218 6 0 14 -10 17 -22z m284 -54 c-3 -4 -13
-4 -22 0 -13 5 -14 10 -4 28 l12 23 10 -23 c6 -12 7 -25 4 -28z m-8 -85 c27
-36 23 -43 -19 -34 -36 8 -48 28 -30 50 17 21 23 19 49 -16z m51 -85 c12 -12
10 -18 -15 -44 -21 -22 -26 -33 -18 -41 14 -14 6 -39 -12 -39 -7 0 -16 -7 -19
-16 -5 -14 -16 -16 -64 -10 -31 4 -60 10 -63 14 -7 7 45 147 62 168 11 14 105
-10 129 -32z m241 -54 c36 -20 13 -58 -26 -44 -16 7 -18 14 -9 38 7 19 9 19
35 6z m-601 -14 c0 -16 -18 -31 -27 -22 -8 8 5 36 17 36 5 0 10 -6 10 -14z
m-40 -130 c0 -15 -18 -31 -26 -23 -7 7 7 37 17 37 5 0 9 -6 9 -14z m274 -1
c35 -2 54 -8 63 -21 12 -17 11 -22 -14 -42 -33 -26 -156 -67 -179 -58 -17 6
-14 20 18 95 16 38 21 42 41 36 12 -4 44 -9 71 -10z m-704 -269 c0 -7 -7 -19
-15 -26 -8 -7 -15 -19 -15 -27 0 -12 7 -14 30 -9 21 4 30 2 30 -8 0 -27 -107
-100 -208 -141 -113 -46 -117 -34 -30 84 53 72 71 88 123 112 67 32 85 35 85
15z m190 -168 c0 -6 -7 -5 -15 2 -8 7 -15 17 -15 22 0 6 7 5 15 -2 8 -7 15
-17 15 -22z m120 24 c0 -5 -7 -17 -15 -28 -14 -19 -14 -19 -15 2 0 11 3 24 7
27 9 10 23 9 23 -1z m-334 -45 c-10 -41 -173 -372 -190 -386 -13 -11 -19 -11
-31 -1 -20 17 -19 30 3 30 29 0 32 10 16 42 -8 16 -14 40 -12 52 1 13 -4 31
-11 40 -17 20 -7 33 28 38 37 5 66 59 53 98 -11 29 -10 30 54 61 36 18 67 36
70 41 11 17 26 7 20 -15z m-180 -101 c3 -8 1 -24 -6 -35 -19 -37 -100 -19
-100 22 0 27 96 38 106 13z m-276 -173 c0 -11 -50 -33 -72 -33 -18 0 -25 20
-11 33 9 10 83 9 83 0z m654 -35 c-3 -13 -7 -23 -8 -23 0 0 -12 -6 -24 -13
-35 -19 -36 -9 -5 27 32 37 47 40 37 9z m-14 -76 c0 -13 -12 -22 -22 -16 -10
6 -1 24 13 24 5 0 9 -4 9 -8z m-430 -17 c16 -19 3 -40 -16 -24 -15 13 -19 39
-5 39 5 0 14 -7 21 -15z m380 -5 c0 -5 -11 -10 -25 -10 -14 0 -25 5 -25 10 0
6 11 10 25 10 14 0 25 -4 25 -10z m84 -17 c-4 -16 -27 -73 -51 -128 -25 -55
-51 -113 -58 -130 -26 -60 -101 -265 -180 -494 -58 -169 -100 -271 -110 -271
-3 0 -22 7 -41 15 -39 16 -41 34 -6 50 12 5 22 16 22 23 0 7 13 25 30 40 16
16 33 43 36 62 4 19 12 40 19 45 18 16 39 89 27 93 -14 4 -4 72 14 92 8 10 10
20 3 32 -6 12 -3 27 12 52 11 20 25 36 29 36 5 0 18 24 28 53 11 28 27 66 36
82 8 17 20 41 26 55 5 14 19 40 30 58 11 18 18 38 15 43 -4 5 1 9 9 9 13 0 14
4 4 26 -11 23 -10 29 7 43 25 20 30 71 7 71 -25 0 2 23 30 26 13 1 26 3 29 3
4 1 9 10 12 21 8 32 28 24 21 -7z m-656 -25 c-9 -13 -24 -25 -34 -27 -17 -3
-16 0 5 23 30 32 49 34 29 4z m236 -185 c-9 -21 -38 -105 -64 -188 -76 -234
-158 -477 -164 -483 -6 -6 -2 22 15 112 8 42 71 226 169 495 35 95 38 101 51
101 5 0 2 -17 -7 -37z m139 -48 c0 -6 -7 -11 -16 -13 -12 -3 -15 1 -11 13 7
17 25 17 27 0z m158 -190 c-17 -49 -33 -90 -36 -93 -16 -16 -11 13 16 87 32
91 39 105 46 98 2 -3 -9 -44 -26 -92z m101 38 c80 -88 125 -194 113 -269 -12
-80 -59 -101 -159 -71 -34 11 -40 18 -52 57 -24 81 -18 120 45 283 6 15 14 27
19 27 4 0 20 -12 34 -27z m-173 -237 c-12 -49 -29 -71 -29 -37 0 21 31 93 37
87 2 -2 -1 -24 -8 -50z m-44 -128 c-2 -7 -20 -63 -40 -125 -33 -104 -48 -133
-62 -120 -6 7 90 256 99 257 4 0 5 -6 3 -12z m55 -6 c0 -10 -7 -27 -15 -38
-14 -19 -14 -19 -15 3 0 28 10 53 21 53 5 0 9 -8 9 -18z m-185 -37 c1 -22 -1
-23 -14 -11 -8 8 -11 22 -7 32 8 22 19 11 21 -21z m-158 -27 c-4 -24 -15 -70
-25 -103 -11 -33 -23 -73 -26 -88 -6 -25 -49 -57 -61 -46 -4 5 52 148 79 199
7 14 16 37 20 53 10 43 19 32 13 -15z m121 15 c2 -8 -5 -13 -17 -13 -12 0 -21
6 -21 16 0 18 31 15 38 -3z m559 -79 c-4 -4 -20 -1 -37 6 -32 13 -30 25 5 32
20 4 45 -26 32 -38z m-577 26 c0 -5 -7 -10 -15 -10 -8 0 -15 5 -15 10 0 6 7
10 15 10 8 0 15 -4 15 -10z m189 -96 c-16 -19 -29 -17 -29 4 0 26 11 34 27 21
10 -9 10 -15 2 -25z m262 -24 c22 -13 25 -30 4 -30 -8 0 -19 9 -25 20 -12 23
-7 25 21 10z m-381 -97 c0 -24 -55 -163 -65 -163 -8 0 -1 30 18 85 16 47 33
85 38 85 5 0 9 -3 9 -7z m-270 -36 c0 -17 -20 -37 -37 -37 -16 0 -17 22 -1 38
16 16 38 15 38 -1z m164 -55 c-4 -18 -10 -32 -14 -32 -7 0 -5 24 6 59 8 26 14
4 8 -27z m-416 -26 c3 -15 1 -16 -17 -6 -12 6 -19 16 -15 21 9 15 28 5 32 -15z
m197 -92 c-3 -19 -12 -47 -19 -64 -12 -30 -12 -30 -31 -10 -16 18 -17 25 -5
63 13 46 25 58 47 50 11 -4 13 -15 8 -39z m-400 -33 c-7 -12 -85 -25 -111 -19
-12 3 -2 9 26 15 58 14 93 15 85 4z m138 -50 c25 -11 48 -24 51 -30 9 -14 -13
-88 -30 -102 -10 -8 -19 0 -39 31 -33 52 -47 90 -41 107 7 17 6 17 59 -6z
m121 -58 c-11 -44 -44 -116 -50 -110 -11 10 33 137 47 137 5 0 6 -12 3 -27z
m53 -51 c11 -19 11 -46 -1 -117 -13 -76 -16 -85 -30 -85 -17 0 -56 46 -56 65
0 16 63 155 70 155 3 0 10 -8 17 -18z m283 -413 c0 -30 -22 -49 -56 -49 -44 0
-41 18 7 42 39 21 49 22 49 7z m30 -138 c0 -10 -9 -29 -20 -42 -20 -24 -20
-24 -35 -5 -8 11 -15 23 -15 26 0 5 53 36 68 39 1 1 2 -8 2 -18z"/>
<path d="M11197 15833 c-4 -3 -7 -15 -7 -25 0 -20 -11 -23 -27 -7 -18 18 -35
0 -28 -30 11 -45 54 -81 97 -81 42 0 55 26 16 32 -19 2 -23 9 -21 32 1 17 -2
35 -8 42 -5 6 -7 19 -3 28 6 16 -7 22 -19 9z"/>
<path d="M11665 15770 c-10 -16 15 -52 32 -46 9 4 22 1 29 -5 11 -9 14 -8 14
2 0 10 3 10 12 1 7 -7 18 -12 25 -12 19 0 16 20 -4 27 -10 3 -26 14 -36 25
-19 19 -62 24 -72 8z"/>
<path d="M11290 15754 c0 -5 7 -19 15 -30 8 -10 15 -14 15 -8 0 5 -7 19 -15
30 -8 10 -15 14 -15 8z"/>
<path d="M11815 15719 c-4 -6 -3 -15 3 -21 6 -6 11 -4 15 6 7 18 -9 31 -18 15z"/>
<path d="M10540 15675 c0 -9 6 -12 15 -9 8 4 15 10 15 15 0 5 -7 9 -15 9 -8 0
-15 -7 -15 -15z"/>
<path d="M10960 15579 c0 -17 3 -19 14 -10 11 9 19 9 35 -1 26 -16 42 -1 17
18 -31 22 -66 18 -66 -7z"/>
<path d="M10820 15571 c0 -10 7 -24 15 -31 13 -11 18 -10 31 8 8 12 23 22 32
22 12 0 13 3 4 12 -8 8 -15 8 -26 -1 -10 -8 -16 -9 -21 -1 -11 17 -35 11 -35
-9z"/>
<path d="M11427 15414 c-3 -3 -1 -19 5 -36 9 -25 12 -28 20 -14 9 16 -13 62
-25 50z"/>
<path d="M11662 15391 c4 -13 18 -16 19 -4 0 4 -5 9 -11 12 -7 2 -11 -2 -8 -8z"/>
<path d="M11728 15364 c-4 -3 -4 -13 -1 -22 4 -13 2 -13 -9 2 -17 21 -33 16
-41 -13 -4 -16 2 -20 40 -26 53 -8 60 -3 47 32 -9 27 -25 39 -36 27z"/>
<path d="M11790 15352 c0 -23 23 -45 42 -40 9 2 4 13 -14 32 -25 25 -28 26
-28 8z"/>
<path d="M11466 15331 c-4 -6 -1 -11 6 -11 7 0 19 -4 27 -9 13 -8 13 -12 1
-26 -12 -14 -12 -18 1 -26 27 -17 54 -6 57 25 2 16 0 32 -5 36 -14 15 -80 23
-87 11z"/>
<path d="M11880 15295 c27 -14 36 -13 25 4 -3 6 -16 11 -28 11 -21 -1 -21 -1
3 -15z"/>
<path d="M11585 15290 c3 -5 20 -10 36 -10 18 0 28 4 24 10 -3 6 -20 10 -36
10 -18 0 -28 -4 -24 -10z"/>
<path d="M11382 15264 c2 -11 13 -20 26 -22 13 -2 22 -10 22 -22 0 -32 28 -32
35 1 7 31 3 41 -18 45 -7 1 -25 5 -40 9 -25 7 -28 5 -25 -11z"/>
<path d="M11302 15243 c-8 -14 -9 -24 -2 -28 12 -7 24 18 18 37 -3 8 -9 5 -16
-9z"/>
<path d="M11210 15230 c20 -13 53 -13 45 0 -3 6 -18 10 -33 10 -21 0 -24 -2
-12 -10z"/>
<path d="M11050 15200 c0 -25 10 -30 31 -17 26 16 24 24 -6 29 -19 4 -25 1
-25 -12z"/>
<path d="M10775 15192 c-36 -4 -65 -28 -65 -54 0 -26 27 -23 72 8 53 37 51 53
-7 46z"/>
<path d="M10986 15191 c-6 -10 28 -44 36 -35 3 3 4 14 1 25 -5 19 -28 26 -37
10z"/>
<path d="M11185 15190 c-3 -5 3 -10 14 -10 12 0 21 5 21 10 0 6 -6 10 -14 10
-8 0 -18 -4 -21 -10z"/>
<path d="M10839 15182 c-1 -4 -1 -10 -1 -14 1 -3 -5 -11 -13 -18 -14 -12 -10
-40 6 -40 5 0 14 11 19 25 5 14 17 25 25 25 9 0 14 4 11 9 -7 11 -46 21 -47
13z"/>
<path d="M10640 15158 c0 -14 30 -22 41 -11 7 7 2 12 -15 15 -14 3 -26 1 -26
-4z"/>
<path d="M11226 15135 c8 -44 -2 -85 -21 -85 -8 0 -15 -7 -15 -15 0 -23 19
-18 57 15 18 17 40 30 48 30 21 0 19 43 -2 62 -10 8 -31 18 -46 22 -27 7 -28
6 -21 -29z"/>
<path d="M10548 15153 c-39 -4 -50 -16 -24 -26 20 -8 69 6 74 21 2 7 0 11 -5
10 -4 -1 -25 -3 -45 -5z"/>
<path d="M11060 15101 c0 -21 -6 -30 -22 -34 -12 -4 -27 -2 -33 3 -8 7 -15 2
-23 -15 -6 -14 -16 -25 -22 -25 -13 0 -13 -37 0 -45 6 -4 26 3 45 15 19 12 38
19 43 16 5 -3 18 1 29 9 18 12 19 18 9 59 -12 52 -26 61 -26 17z"/>
<path d="M10837 15013 c-4 -3 1 -15 10 -26 18 -19 17 -20 -12 -13 -16 3 -48 9
-70 13 -22 3 -44 9 -50 13 -14 10 -75 -17 -75 -33 0 -7 5 -18 12 -25 14 -14
81 -16 106 -3 9 6 38 13 65 16 36 5 47 10 47 24 0 21 -23 44 -33 34z"/>
<path d="M10573 14924 c-9 -23 11 -38 26 -20 13 16 7 36 -10 36 -5 0 -12 -7
-16 -16z"/>
<path d="M11485 14883 c-8 -33 8 -51 30 -33 20 17 19 33 -4 47 -17 10 -20 9
-26 -14z"/>
<path d="M11226 14873 c-11 -11 -6 -23 9 -23 8 0 15 4 15 9 0 13 -16 22 -24
14z"/>
<path d="M11110 14650 c-8 -5 -24 -11 -34 -15 -19 -5 -18 -7 7 -32 l26 -27 27
27 c22 22 24 29 14 42 -14 17 -19 17 -40 5z"/>
<path d="M11002 14642 c-8 -6 -10 -22 -6 -55 4 -26 9 -47 13 -47 3 0 14 12 24
26 32 44 9 102 -31 76z"/>
<path d="M11166 14500 c-18 -6 -18 -7 -3 -13 9 -3 27 -3 39 2 20 7 20 8 2 13
-11 3 -28 2 -38 -2z"/>
<path d="M10415 15260 c-3 -6 -18 -7 -32 -4 -19 5 -24 3 -21 -7 3 -8 14 -15
26 -17 13 -2 20 -8 16 -15 -3 -7 4 -1 15 13 11 14 21 28 21 33 0 10 -18 9 -25
-3z"/>
<path d="M11950 14865 c-10 -12 -10 -15 4 -15 9 0 16 7 16 15 0 8 -2 15 -4 15
-2 0 -9 -7 -16 -15z"/>
<path d="M9352 13481 c-11 -6 -10 -10 4 -15 10 -4 24 0 33 9 14 13 13 15 -4
15 -11 0 -26 -4 -33 -9z"/>
<path d="M11545 12599 c-11 -17 0 -20 21 -4 17 13 17 14 2 15 -9 0 -20 -5 -23
-11z"/>
<path d="M11871 12457 c-8 -10 -7 -19 4 -33 14 -18 14 -17 15 14 0 36 -2 38
-19 19z"/>
<path d="M11935 12440 c3 -5 13 -10 21 -10 8 0 12 5 9 10 -3 6 -13 10 -21 10
-8 0 -12 -4 -9 -10z"/>
<path d="M10535 12370 c-6 -9 32 -50 47 -50 4 0 8 6 8 14 0 17 -47 49 -55 36z"/>
<path d="M10441 12326 c-14 -17 -1 -28 19 -16 11 7 12 12 4 20 -8 8 -14 7 -23
-4z"/>
<path d="M10487 12233 c-13 -12 -7 -33 8 -33 8 0 15 9 15 20 0 20 -11 26 -23
13z"/>
<path d="M10690 11822 c0 -5 7 -16 16 -23 14 -12 16 -11 13 5 -4 20 -29 35
-29 18z"/>
<path d="M10675 11700 c-6 -11 -3 -11 57 -14 21 0 38 2 38 5 0 19 -84 26 -95
9z"/>
<path d="M8367 11274 c-8 -8 3 -34 14 -34 11 0 12 27 0 34 -4 3 -11 3 -14 0z"/>
<path d="M11554 10922 c-12 -2 -30 -12 -40 -23 -9 -10 -22 -19 -28 -19 -6 0
-19 -13 -28 -29 -14 -26 -14 -32 -2 -42 10 -8 14 -8 14 0 0 6 8 11 18 11 9 0
30 16 45 35 15 19 34 35 42 35 15 0 21 26 8 32 -5 2 -18 2 -29 0z"/>
<path d="M10336 9883 c-11 -11 -6 -23 9 -23 8 0 15 4 15 9 0 13 -16 22 -24 14z"/>
<path d="M10360 9835 c0 -9 5 -15 11 -13 6 2 11 8 11 13 0 5 -5 11 -11 13 -6
2 -11 -4 -11 -13z"/>
<path d="M10259 9743 c-12 -15 -12 -16 4 -10 10 4 23 7 28 7 5 0 9 5 9 10 0
16 -26 12 -41 -7z"/>
<path d="M10335 9729 c-4 -6 -5 -13 -2 -16 7 -7 27 6 27 18 0 12 -17 12 -25
-2z"/>
<path d="M7957 13863 c-16 -15 -4 -60 43 -156 28 -57 50 -108 50 -114 0 -14
36 -27 50 -18 16 10 11 36 -8 41 -16 5 -52 99 -52 139 0 9 -10 35 -21 58 -26
51 -46 67 -62 50z"/>
<path d="M8085 13690 c-4 -6 -3 -16 3 -22 6 -6 12 -6 17 2 4 6 3 16 -3 22 -6
6 -12 6 -17 -2z"/>
<path d="M8074 13549 c-2 -4 4 -27 15 -51 11 -24 33 -73 50 -110 17 -38 36
-68 44 -68 12 0 11 12 -5 68 -11 37 -25 90 -30 118 -10 47 -13 51 -40 51 -16
0 -31 -4 -34 -8z"/>
<path d="M8054 13302 c3 -22 15 -60 27 -87 11 -26 21 -63 21 -82 0 -34 1 -35
18 -17 10 11 21 36 24 57 6 30 4 37 -9 37 -17 0 -35 38 -35 74 0 22 -27 56
-45 56 -4 0 -5 -17 -1 -38z"/>
<path d="M8053 13058 c-16 -21 -4 -86 18 -93 10 -3 36 -26 57 -51 22 -24 47
-44 56 -44 10 0 16 -8 16 -23 0 -13 9 -32 20 -42 11 -10 20 -26 20 -36 0 -29
11 -49 27 -49 8 0 13 -6 10 -12 -2 -7 -12 -13 -23 -13 -10 0 -20 -8 -22 -18
-2 -12 3 -17 17 -17 12 0 21 5 21 11 0 7 11 9 29 6 24 -5 31 -2 36 13 3 11 2
28 -4 37 -9 17 -10 17 -16 1 -11 -28 -21 -21 -35 22 -7 22 -21 47 -32 56 -10
10 -18 28 -18 41 0 34 -26 80 -50 88 -11 3 -20 12 -20 18 0 7 -16 25 -35 40
-23 18 -35 36 -35 52 0 27 -21 34 -37 13z"/>
<path d="M8232 13029 c1 -12 9 -24 16 -27 9 -3 13 3 10 19 -1 12 -9 24 -16 27
-9 3 -13 -3 -10 -19z"/>
<path d="M8251 12976 c2 -2 14 -9 27 -15 18 -10 22 -9 22 4 0 10 -9 15 -27 15
-14 0 -24 -2 -22 -4z"/>
<path d="M8296 12932 c-2 -4 7 -25 20 -47 27 -44 33 -26 8 23 -16 34 -20 37
-28 24z"/>
<path d="M8340 12826 c0 -8 5 -18 10 -21 6 -3 10 1 10 9 0 8 -4 18 -10 21 -5
3 -10 -1 -10 -9z"/>
<path d="M7980 12650 c-25 -16 2 -29 45 -21 22 3 36 9 30 12 -22 13 -61 18
-75 9z"/>
<path d="M8316 12641 c-3 -5 1 -14 9 -21 8 -7 15 -23 15 -35 0 -12 6 -28 13
-34 11 -9 14 -5 15 19 0 16 -4 32 -9 35 -5 4 -9 15 -9 26 0 19 -24 27 -34 10z"/>
<path d="M7920 12586 c0 -30 5 -46 15 -50 18 -6 20 15 3 32 -9 9 -7 13 5 18
21 8 22 30 1 38 -24 9 -24 9 -24 -38z"/>
<path d="M8317 12524 c-10 -11 3 -24 24 -24 10 0 19 7 19 15 0 15 -31 21 -43
9z"/>
<path d="M7911 12510 c2 -16 57 -104 67 -108 15 -5 14 32 -2 78 -10 28 -18 35
-39 35 -15 1 -27 -2 -26 -5z"/>
<path d="M8952 10999 c2 -6 8 -10 13 -10 5 0 11 4 13 10 2 6 -4 11 -13 11 -9
0 -15 -5 -13 -11z"/>
<path d="M8497 10884 c-14 -14 -7 -25 13 -22 12 2 21 8 21 13 0 12 -24 18 -34
9z"/>
<path d="M9650 9780 c0 -5 7 -10 15 -10 8 0 15 5 15 10 0 6 -7 10 -15 10 -8 0
-15 -4 -15 -10z"/>
<path d="M14924 3015 c-7 -19 -14 -43 -14 -53 0 -11 -11 -34 -25 -53 -63 -87
-92 -197 -103 -402 -5 -75 -13 -142 -19 -148 -6 -6 -37 -15 -69 -19 -138 -19
-214 -35 -214 -47 0 -17 58 -43 98 -43 20 0 44 -7 53 -16 10 -9 44 -19 76 -23
l58 -6 5 -146 c5 -123 9 -150 25 -175 11 -16 22 -45 25 -64 3 -22 10 -35 20
-35 21 0 28 61 29 248 1 150 2 157 21 157 26 0 26 12 -1 28 -14 9 -19 21 -17
40 2 22 10 28 42 34 21 5 46 19 57 32 10 13 43 31 74 41 77 24 58 42 -21 20
-70 -19 -104 -27 -124 -29 -24 -2 -15 268 12 349 11 33 23 64 28 68 14 15 58
-57 78 -131 21 -73 71 -152 97 -152 28 0 37 73 20 157 -29 142 -43 180 -79
210 -24 20 -39 47 -56 98 -34 106 -51 119 -76 60z m46 -124 c0 -33 -10 -44
-29 -32 -16 10 -4 61 15 61 9 0 14 -11 14 -29z m95 -91 c28 -54 45 -233 20
-208 -7 6 -55 204 -55 224 0 24 19 16 35 -16z m-224 -183 c-13 -13 -14 5 -3
43 l7 25 3 -29 c2 -16 -1 -33 -7 -39z m-64 -353 c9 -23 -14 -33 -54 -24 -40
10 -52 18 -32 24 8 2 21 7 29 9 30 10 51 7 57 -9z"/>
<path d="M16077 2919 c-9 -13 -19 -36 -22 -51 -4 -16 -13 -28 -20 -28 -16 0
-23 -38 -31 -182 -4 -65 -11 -118 -15 -118 -5 0 -9 47 -9 105 0 102 -12 137
-26 78 -7 -27 1 -314 13 -435 5 -64 5 -68 -15 -68 -12 0 -31 13 -44 30 -13 18
-31 30 -45 30 -19 0 -23 4 -19 23 13 62 14 95 3 127 -17 50 -53 49 -86 -2 -17
-27 -32 -38 -49 -38 -32 0 -24 -21 16 -39 25 -11 32 -21 32 -42 0 -35 36 -64
58 -47 15 13 32 -3 32 -30 0 -7 5 -23 12 -35 7 -12 12 -30 12 -41 1 -12 13
-22 36 -30 l35 -11 0 -90 c0 -92 10 -130 39 -154 22 -19 29 -9 32 46 3 57 24
123 40 123 6 0 19 -9 30 -21 33 -37 184 -131 199 -125 25 9 17 21 -35 55 -116
75 -168 121 -176 154 -4 18 -15 38 -25 45 -24 17 -25 42 -1 42 9 0 24 12 33
28 9 16 50 46 100 74 132 73 190 149 103 135 -31 -5 -130 -74 -202 -141 -19
-18 -35 -26 -41 -20 -21 23 38 344 94 512 3 7 -7 17 -20 22 -28 11 -29 15 -14
76 14 55 0 80 -24 43z"/>
<path d="M17365 2581 c-22 -32 -26 -48 -23 -92 l3 -54 40 0 c37 0 40 2 43 30
2 17 9 37 17 45 7 8 15 32 19 52 6 31 3 39 -13 47 -37 20 -60 12 -86 -28z"/>
<path d="M15153 2478 c-6 -7 -15 -35 -22 -61 -6 -27 -22 -58 -35 -70 -41 -38
-48 -79 -53 -322 -5 -204 -4 -232 11 -244 18 -15 20 -13 34 59 5 31 13 44 23
43 12 -3 15 13 14 90 0 70 4 100 18 125 16 30 16 34 2 48 -17 17 -15 40 12
149 37 150 40 170 30 183 -5 6 -13 12 -17 12 -4 0 -12 -6 -17 -12z"/>
<path d="M15335 2470 c-4 -6 -3 -45 0 -88 6 -69 5 -81 -15 -115 -22 -38 -23
-43 -15 -190 5 -84 9 -174 10 -200 1 -26 6 -52 12 -58 18 -18 34 17 53 113 21
105 51 194 65 191 5 -1 15 -21 21 -45 6 -24 20 -65 32 -92 12 -27 22 -66 22
-88 0 -75 40 -106 59 -45 6 17 13 104 17 193 9 224 -7 287 -75 287 -46 0 -83
-34 -107 -99 -12 -33 -25 -59 -30 -59 -4 0 -6 59 -5 132 1 81 -2 140 -9 152
-12 23 -25 27 -35 11z m193 -265 c17 -36 16 -188 0 -183 -7 3 -18 31 -25 63
-6 32 -17 68 -23 80 -9 17 -9 28 -1 44 16 28 35 27 49 -4z"/>
<path d="M17091 2406 c-7 -8 -11 -29 -9 -47 3 -29 9 -35 51 -52 55 -23 65 -18
48 20 -11 23 -10 29 3 39 25 18 19 31 -20 38 -19 4 -41 9 -48 12 -7 3 -18 -2
-25 -10z"/>
<path d="M17339 2388 c-1 -7 -4 -31 -7 -53 -4 -22 -6 -112 -6 -200 1 -136 5
-166 21 -202 20 -43 33 -47 33 -10 0 10 10 27 23 37 21 17 22 26 22 142 1 67
4 153 9 189 l8 66 -34 21 c-40 25 -67 28 -69 10z"/>
<path d="M16745 2379 c-14 -22 10 -194 42 -299 22 -72 96 -221 118 -240 15
-13 19 -12 31 5 8 10 14 29 14 41 0 13 14 65 31 116 50 147 68 217 59 223 -5
3 -13 -3 -19 -12 -17 -31 -23 -7 -14 54 10 66 8 83 -13 83 -22 0 -46 -46 -53
-102 -5 -44 -10 -54 -28 -56 -18 -3 -23 -12 -29 -58 -3 -30 -10 -54 -15 -54
-13 0 -39 56 -48 105 -8 42 -7 45 10 40 24 -8 24 -9 -3 62 -29 79 -66 120 -83
92z"/>
<path d="M16473 2343 c-67 -13 -156 -143 -156 -229 0 -84 78 -174 151 -174 55
0 123 74 151 164 32 105 24 199 -22 231 -20 14 -74 18 -124 8z m98 -54 c16
-16 19 -30 17 -72 -3 -50 -19 -68 -27 -30 -2 10 -19 35 -37 56 -19 20 -34 41
-34 45 0 29 53 29 81 1z m-91 -73 c6 -8 18 -12 26 -9 40 15 44 -135 5 -196
-16 -24 -54 -5 -73 37 -41 89 -6 225 42 168z"/>
<path d="M17090 2195 c-16 -42 -11 -94 18 -175 24 -66 30 -75 52 -75 23 0 25
3 22 40 -1 22 -5 82 -8 133 -4 59 -10 92 -17 92 -7 0 -22 3 -34 6 -18 5 -25 1
-33 -21z"/>
<path d="M15747 2184 c-4 -4 -7 -19 -7 -34 0 -14 -9 -43 -20 -65 -23 -46 -26
-112 -5 -139 10 -13 15 -43 15 -84 0 -55 2 -63 18 -60 11 2 24 23 36 61 16 51
17 61 5 85 -9 18 -14 62 -14 131 0 97 -8 125 -28 105z"/>
<path d="M18006 2003 c-45 -153 -43 -646 4 -870 38 -181 43 -198 65 -198 18 0
20 6 18 78 -1 42 1 77 5 77 6 0 26 -45 63 -137 5 -13 13 -23 19 -23 13 0 15
-5 -25 106 -66 186 -68 199 -70 534 -1 237 -5 319 -17 367 -9 34 -19 66 -23
72 -10 17 -33 13 -39 -6z m23 -503 c0 -47 -4 -92 -9 -100 -6 -10 -9 35 -9 135
1 111 4 137 9 100 5 -27 9 -88 9 -135z"/>
<path d="M17055 1930 c-9 -14 2 -227 15 -290 6 -30 23 -101 37 -158 14 -56 24
-105 21 -108 -3 -3 -36 -9 -73 -15 -37 -5 -74 -13 -83 -18 -31 -17 -49 -1 -55
47 -3 26 -1 52 4 59 7 7 6 14 -3 19 -19 12 -219 8 -259 -5 -41 -13 -102 -71
-91 -87 13 -19 67 -51 107 -64 55 -17 150 -68 172 -92 14 -15 15 -21 4 -27
-26 -17 -110 -22 -130 -9 -23 14 -36 6 -28 -17 5 -11 22 -15 74 -15 88 0 72
-16 -35 -35 -91 -16 -102 -20 -102 -39 0 -27 90 -51 192 -51 93 0 97 1 135 31
21 17 39 37 41 45 4 20 -74 136 -105 156 -15 10 -49 29 -77 43 -48 24 -89 71
-74 86 4 3 27 9 51 11 53 6 87 -9 80 -35 -3 -13 2 -21 16 -25 13 -3 21 -13 21
-26 0 -13 9 -25 23 -30 19 -7 114 -1 189 13 23 5 27 1 33 -27 4 -18 13 -54 22
-81 22 -70 44 -166 46 -206 2 -19 6 -41 10 -47 13 -20 35 -15 43 10 11 31 6
157 -6 172 -10 13 -41 90 -45 115 -1 8 -6 23 -10 33 -17 39 -2 45 122 49 65 2
120 2 122 1 4 -3 8 -33 10 -81 1 -44 84 -132 159 -169 71 -35 157 -37 220 -4
23 12 42 26 42 31 0 6 -32 7 -82 3 -93 -7 -101 7 -14 26 31 7 58 17 61 22 8
12 -8 11 -90 -6 -101 -21 -132 -19 -160 10 -29 28 -34 82 -10 91 8 4 30 -5 48
-18 39 -30 89 -48 133 -48 55 0 47 15 -15 28 -93 19 -92 28 17 84 123 63 145
83 138 123 -12 55 -91 115 -153 115 -60 0 -149 -40 -214 -96 -70 -61 -68 -60
-273 -45 l-88 6 -19 72 c-33 134 -44 230 -29 259 13 24 12 27 -9 43 -19 15
-25 31 -32 97 -4 43 -8 80 -8 82 -2 7 -31 1 -36 -8z m785 -477 c31 -27 40 -43
38 -62 -4 -34 -34 -40 -42 -8 -3 14 -24 41 -46 61 -22 20 -40 38 -40 41 0 3
11 5 25 5 15 0 42 -15 65 -37z m-250 -87 c-36 -63 -48 -74 -56 -53 -7 20 19
70 54 102 38 35 39 16 2 -49z m176 33 c16 -27 -63 -99 -110 -99 -26 0 -18 34
17 67 44 41 79 54 93 32z m-816 -308 c0 -20 -70 -41 -138 -41 -87 0 -103 16
-25 25 32 3 76 9 98 14 56 12 65 12 65 2z"/>
<path d="M16045 1790 c-3 -5 -17 -10 -30 -10 -13 0 -26 -4 -29 -9 -4 -5 1 -41
9 -81 9 -44 15 -125 15 -210 l0 -139 -49 33 c-27 19 -81 43 -121 55 -44 14
-73 28 -77 39 -3 9 -15 29 -25 44 -22 32 -23 48 -3 48 8 0 15 4 15 8 0 17 -39
44 -57 40 -15 -3 -19 -15 -21 -72 -3 -64 -4 -68 -24 -62 -12 3 -28 0 -36 -6
-11 -10 -10 -15 9 -29 22 -16 22 -19 7 -36 -36 -40 -32 -107 12 -163 28 -37
36 -17 15 44 -15 45 -17 59 -7 81 17 36 38 27 34 -14 -2 -18 2 -55 8 -82 18
-75 7 -83 -102 -76 -68 4 -95 2 -118 -10 -17 -8 -29 -20 -27 -26 4 -13 74 -34
187 -56 l85 -17 16 -105 c9 -57 28 -156 42 -219 25 -112 48 -234 64 -335 7
-41 12 -50 28 -50 18 0 20 6 17 66 -3 53 -1 67 12 72 20 8 21 40 2 70 -36 58
-85 331 -86 480 0 45 1 47 29 47 40 0 90 19 129 47 18 14 36 22 40 19 3 -4 6
-83 7 -176 1 -188 7 -209 59 -196 34 8 41 42 29 125 -6 37 -6 68 -1 72 17 11
18 317 1 433 -9 61 -17 163 -18 226 -1 64 -5 121 -9 128 -9 15 -23 16 -31 2z
m-194 -415 c148 -53 141 -127 -13 -143 -46 -4 -47 -4 -52 29 -21 138 -18 143
65 114z"/>
<path d="M16367 1593 c-3 -5 -1 -30 4 -58 4 -27 8 -55 8 -61 1 -7 -22 -13 -54
-16 -42 -4 -64 -12 -93 -35 -94 -76 -114 -226 -41 -301 39 -40 71 -41 128 -2
24 17 48 30 53 30 5 0 13 11 18 25 5 14 16 25 24 25 19 0 61 -71 101 -170 37
-92 42 -100 61 -100 18 0 15 31 -16 160 -84 358 -161 557 -193 503z m-32 -214
c4 -6 -3 -18 -15 -26 -12 -8 -30 -29 -41 -47 -13 -22 -19 -26 -19 -13 0 21 16
54 38 80 17 20 28 22 37 6z m45 -61 c-1 -35 -37 -108 -55 -108 -11 0 -15 11
-15 44 0 36 5 48 26 65 34 27 44 26 44 -1z m-90 -133 c10 -12 10 -19 2 -27
-20 -20 -42 10 -42 57 0 54 13 67 21 21 3 -19 12 -42 19 -51z"/>
<path d="M18336 1585 c-9 -23 -68 -55 -102 -55 -53 0 -60 -22 -20 -65 37 -39
62 -42 80 -10 6 11 16 24 22 30 24 23 54 74 54 94 0 24 -25 28 -34 6z"/>
<path d="M18510 1368 c0 -49 8 -99 25 -153 14 -44 25 -97 25 -117 0 -20 4 -39
9 -43 6 -3 26 -39 46 -81 20 -41 43 -78 52 -81 26 -10 32 18 12 61 -31 69 -21
196 16 196 33 0 94 -41 117 -78 12 -22 45 -72 72 -113 89 -134 106 -144 150
-80 l28 39 -21 47 c-12 26 -21 54 -21 62 0 32 -43 94 -107 153 l-68 63 62 -6
c35 -3 65 -1 68 3 9 15 -65 29 -196 36 l-125 7 -26 -33 c-45 -57 -68 -23 -68
101 0 39 -5 63 -16 73 -28 28 -34 17 -34 -56z m230 -183 c0 -13 -4 -14 -20 -5
-11 6 -20 13 -20 15 0 3 9 5 20 5 11 0 20 -7 20 -15z"/>
<path d="M18271 1276 c-37 -45 -28 -131 24 -242 19 -39 39 -84 45 -99 18 -49
35 -24 34 51 -4 171 -6 189 -33 244 -27 57 -49 71 -70 46z"/>
<path d="M8014 893 c-38 -52 -38 -53 -1 -53 28 0 36 4 41 24 3 13 9 31 12 40
11 28 -30 19 -52 -11z"/>
</g>
</svg>
